<svg xmlns="http://www.w3.org/2000/svg" viewBox="36 16 176 168" width="64" height="64"><path fill="#77b7de" d="m176 49 2 1-34 27-2 1-5 6 38-15 3-1h7l-36 14-1 3h-2l1 2h11l11-2h9l3-1 8-1h11v1q-29 5-58 7v3h2l30 5v1h-2l-22-1q7 4 14 5v2l3 1 8 5v2h2l9 4 3 1 2 1q-5 1-11-2-8-4-17-6l-5-1-3-1q1 9 7 15 3 4 2 7-4 11-12 17h-2l-1 3q-5 6-12 5l-18-1h-3l-13-3v-1h9v-2h-11l6-12q3-6 2-13v-23l-5 2v3l-4 12v2l-2 5v-9l1-3 1-2 2-6v-3l2-7h-3v2l-8 22-4-6-1-3-1-3-2-5-1-3-2-4-3-1-1 3-5 11H48v-1l8-1 1-9V88q0-8 5-15 7-6 16-5h11c9 0 9 0 16-3l2-5h2v-2q4-1 8 1l7 10 2 1q4 4 3 9l7-9 2-2 2-3 3-5 2-2 3-3-9 15-2 2-1 2-1 5q6-1 10-6l4-3 2-1 13-10z"/><path fill="#6584b7" d="m168 24 1 2-2 5-2 2-1 2 2 1-20 29 9-3v-2l5-3 2-2 11-8 3-2 7-4 4 2v4l-6 5-2 1-13 9-5 7 9-2h7v-2q12-4 25-5l-11 6 1 2-2 1-7 3-3 1-19 9h2l26 1v1l-38 4h-4l-1-3 12-7 2-1 12-4 2-1-15 6c-15 6-15 6-22 6q3-5 8-8l3-3 2-1 10-9 17-13-1 1-2 1-2 2-22 16-3 3-6 5-5 2-2-1 3-8 2-2 1-2 3-4 1-1 2-5-2 2-8 13-2 3-1 2-2 2h-3v-3q-1-6-7-9l-3-5q-2-3-6-4h-3v2h-2l-1 2-3 6h-7l-17 1h-4q-9 0-13 6-4 4-3 10v16l-5 7 19 1 2-6 2-4 1-2 1-2 4 1 4 8 2 6 1 3 2 5 4-7 1-2 1-3 1-3 2-7h3l-4 18v2l-2 6 5-15q1-4 6-6 3 6 1 14v13q-1 10-6 17l-2 3-1 2h11v2l-6 1q18 4 38 3l-1 3c-11 4-24 1-35-1l-22-2v2l-6 1v2q-2 4-5 6l-4 3q-5 4-11 3l-2-1v-2h-2l-2-8v-9l-1-31-10-4v-2h-2v-9l13-5V80h2v-3q3-8 11-12l20-2h15l1-5h2l2-4h9l2 4 7 3v6l6 2v-2l2-1 1-3 6-10 4-5 1-2 4-5 5-3v-2q0-3 2-5l3-2 3 1 2-2z"/><path fill="#68a7b5" d="M145 97h9l-4 2q7 4 14 5v2l3 1 8 5v2h2l9 4 3 1 2 1q-5 1-11-2-8-4-17-6l-5-1-3-1q1 9 7 15 3 4 2 7-4 11-12 17h-2l-1 3q-5 6-12 5h-10l-8-1h-3l-13-3v-1h9v-2h-10l10-16 10 7 15 11-2-8-2-5-3 1v4l-4-1-1-4h-2l1-3h-2l-1-9-2-1 2-3-1 2-2 2-2 2-2 2h-1v-24l3-1 1-7h6l2 5v-4l2 1h4l-1-3 9 5 3 2 2 1-2-4h4l3 1 3 1 3 1 3 2 7 3-3-1-4-2-2-1-12-6z"/><path fill="#6b3d43" d="m168 24 1 2-2 5-2 2-1 2 2 1-20 29 9-3v-2l5-3 2-2 11-8 3-2 7-4 4 2v4l-6 5-2 1-13 9-5 7 9-2h7v-2q12-4 25-5l-11 6 1 2-2 1-7 3-3 1-19 9h2l26 1v1l-38 4h-4l-1-3 12-7 2-1 12-4 2-1-15 6c-15 6-15 6-22 6q3-5 8-8l3-3 2-1 10-9 17-13-1 1-2 1-2 2-22 16-3 3-6 5-5 2-2-1 3-8 2-2 1-2 3-4 1-1 2-5-2 2-8 13-2 3-1 2-2 2h-3q0-7 3-12l2-1 1-3 6-10 4-5 1-2 4-5 5-3v-2q0-3 2-5l3-2 3 1 2-2z"/><path fill="#2c364b" d="M115 52q4 1 4 5h2l-1 2-1-2q-5-3-10-2-2-1-4 3l-2-1 3-5zm-13 6 1 3-3 3h-9l-10 1q-12-2-21 6l-4 9h-2v22l-13 5v9h2v2h2l2 1h3l4 3v13l1 24v5l1 6h2v2l8-1 6-1 2-4 3-3h2l1-4 6-1v-2l24 2q17 2 33 1l1-2q2-5 7-9c8-7 8-7 12-16q0-5-4-9-5-6-4-13 6 0 11 2l3 1 12 4q9 5 17 3l1 2q2 4 6 4h-7q-4-2-10-2l5 3-2 1-8-4-2-1-4-2-2-1-2-1-8-2 2 3 1 3-1 2 2 1q3 7-1 13l-2 3-2 3q-11 14-26 19v-1h-3c-20 0-20 0-24-2l-6-1h-5v-2q-14 0-25 10l-3 5q-4 3-8 3-6 0-9-4l-1-5h-2l-1-16v-5h-1l2-24-2 1-7-2q-6-4-7-11l5-8 5-1h5V87l3-15h2l1-4h2l1-4h3l7-2q10-2 19-1c7 0 7 0 13-3"/><path fill="#4987a8" d="m88 71 1 3H77c-5 0-5 0-10 3l-1 2 1 1 2-3 10-1h22q3 8 0 16l-5 13h-2v3l-4 1-7-15q-6-1-7 3l-1 4-4 6h-5v-2h-6V89c0-11 0-11 4-16 7-5 16-3 24-2"/><path fill="#57a4c4" d="M109 58q4-1 8 1l7 10 2 1 3 6-3 7-5 1v9q-3-4-3-9l-4-12-2-8v-4l-2-1v3l-3 11-1 5 4-12h2v11h-2v2l-5 19-1-2h-3v2l-8 22-4-6-1-3-1-3-3-8-2-4-3-1-1 3-5 11H48v-1l8-1 1-9V88q0-8 5-15 7-6 16-5h11c9 0 9 0 16-3l2-5h2zM63 74q-4 5-3 11v20h6v2h5l3-4 2-3 3-6 5 1 3 7 1 2 2 5 4-1v-3h2c6-13 6-13 6-27l-1-2H75q-4 0-7 2l-2 3q2-6 4-6h7l3-1h9l-1-3c-13-2-13-2-25 3"/><path fill="#25404e" d="M105 112h2q5 12 0 24h-2l-1 2-4 3v2H87c-6 0-6 0-10 3l-2 3-6 2-2-1v-24l-1-4 3-5 3-1 3-1 6-1q4 4 3 7h2l1 2 1 3 1 3 4 3h4v-4h2v-3h2v-2l1-2v-3z"/><path fill="#344e69" d="M107 54h9l2 4 7 3v6l6 2-1 5-4-2-8-9q-2-4-6-5h-3v2h-2l-1 2-3 6h-7l-17 1h-4q-9 0-13 6l-3 4h-2v2c0 19 0 19-2 24l-12 4-1 6 11 3v2h2l1 7v6l2 36 4 1h6l1-4h2l2-1 2-5 3-1 2-4q5-4 11-3l2-1q7 0 13 2 6 3 13 2h3l22 1-1 3c-11 4-24 1-35-1l-22-2v2l-6 1v2q-2 4-5 6l-4 3q-5 4-11 3l-2-1v-2h-2l-2-8v-9l-1-31-10-4v-2h-2v-9l13-5V80h2v-3q3-8 11-12l20-2h15l1-5h2z"/><path fill="#21375b" d="M194 85v1l8 1v1l-11 2h-3l-19 1v2h2l11 3h3l13 4v2h3l4 1h4l5 3-8 1v2l-9-1-5-1h-15l-1 2 4 1v2h3l8 4v4c-15-5-15-5-21-11l-6-3v-2h-2q-7 0-13-5v-1h14-2l-7-1-3-1h-3l-2-1-4-1v-3l8-2h7l23-3z"/><path fill="#86bde1" d="M117 99h6l2 5v-4q6 1 10 5l7 11h4v7h-2v3q0 12-4 24h-2l-4-19-2 1v-4l-1-9 5 1q-4-2-9-2l-5 4-3 3-6 6v-24l3-1z"/><path fill="#524028" d="m202 61-11 5 1 2-2 1-7 3-3 1-19 9h2l26 1v1l-38 4h-4l-1-3 12-7 2-1 12-4 2-1-15 6c-15 6-15 6-22 6q3-6 9-9l8-7 5-2h2l2-1-2 4 9-2h7v-2c17-7 17-7 25-4"/><path fill="#e7e485" d="m176 49 2 1-34 27-2 1-5 6 38-15 3-1h7l-36 14-1 3h-2l1 2h11l11-2h9l3-1 8-1h11v1l-16 2-2 1-35 4q-10 1-20 5c-4-5-4-5-4-8l2-1 1-3q1-5 3-5 5-3 6-7l12-17 1 2-1 2-5 7-2 3-2 3-2 2-1 5q6-1 10-6l4-3 2-1 13-10z"/><path fill="#35458a" d="m79 95 4 1 4 8 2 6 1 3 2 5 4-7 1-2 1-3 1-3 2-7h3l-3 17-1 2q-2 9-6 16l-4-3-4-11-5-12-4 7-5 3-4-1H44v-4l28-1z"/><path fill="#2c2468" d="M60 118h5l1 41 4-4h2l1-3q4-5 9-6h17l-2 5h-3q-9-2-15 3l-11 11-2 3-2 1-4-1z"/><path fill="#2c5466" d="M105 112h2q5 12 0 24h-2l-1 2-4 3v2H87c-6 0-6 0-10 3l-2 3-6 2-2-1v-24l-1-4 3-5 3-1 3-1 6-1q4 4 3 7h2l1 2 1 3 1 3 4 3h4v-4h2v-3h2v-2l1-2v-3zm-34 6-1 9v17h3l10-1 3-1h5q6 0 11-3 3-3 2-7v-4l-2 2q-3 4-10 4l-4-1-4-10-4-6q-4-1-9 1"/><path fill="#213744" d="M115 52q4 1 4 5h2l-1 2-1-2q-5-3-10-2-2-1-4 3l-2-1 3-5zm-13 6 1 3-3 3h-9l-10 1q-12-2-21 6l-4 9h-2v22l-13 5v9h2v2h2l2 1h3l4 3v27h-1l-1-27-4 1q-6-1-10-7l-2-6 5-8 5-1h5V87l3-15h2l1-4h2l1-4h3l7-2q10-2 19-1c7 0 7 0 13-3"/><path fill="#212b37" d="M80 80h13l4 1q0 10-3 19l-5-1-2-5h-2l-1-2-7-1-1 2q-1 4-6 4-2-3-1-7v-3l1-5q4-2 10-2"/><path fill="#473263" d="M155 110q6 0 11 2l3 1 12 4q9 5 17 3l1 2q2 4 6 4h-7q-4-2-10-2l5 3-2 1-7-4-3-1-13-6-3-2-6-2 2 4 2 3 3 4q3 6 1 12-2 5-7 7l-2 4-4 4h-2l-1 3-5 2-2-1 2-2 8-7 2-2q6-5 7-12 0-5-4-9-5-6-4-13"/><path fill="#283832" d="m200 63 2 1-2 1-1 3-6 3-10 5-5 2h-2l-1 2h3q18-1 35 1l-6 7-15-1 2-1v-2l-34-1c3-6 16-9 22-12l2-1 6-2-1-2 4-2 3-1z"/><path fill="#b6b8de" d="m125 82 2 1-1 5h-3l5 7 5-2 9-2v3h2l30 5v1l-17-2h-12v2l23 10c-4 1-4 1-8-1l-3-1-3-1-3-2-7-3 1 2 1 2-1 2-15-10 3 4-1 2-2-1-5-3 1 8q-6-11-5-24z"/><path fill="#2f5e72" d="M86 78h9l5 2q2 13-4 25h-2v3l-4 1-7-15c-6 1-6 2-9 7l-5 1h-2V84q0-3 3-5 7-2 16-1m-16 4-1 8v6q5 1 8-3v-2l7 1 1 2h2l1 2 1 3 5 1c3-9 3-9 3-19q-6-2-12-1h-3z"/><path fill="#3e5d44" d="M194 85v1l8 1v1q-20 3-41 3v2h-7l6 1v2h2q8 0 15 2l20 4v1c-20 1-20 1-27-4l-6-1-3-1h-4l-7-1-3-1-5-1v-3l8-2h7l23-3z"/><path fill="#6e8ec2" d="M80 103q5 5 6 12l-1 4-2-3-2-3h-3l-1 1-9 5v31l4 2-7 8v-42l-5 1-1 45h-1l-1-46-8-2v-1l26-1 1-2z"/><path fill="#3c66cf" d="M117 99h6l3 9c2 5 2 5 1 8l-5 6-2 2-7 7v-24l3-1z"/><path fill="#382029" d="m162 29 2 1-4 7-5 1-1 5-3 1v3l-1 4-4 2-3 6h-2v3q0 5-3 8l-2 3-7 7-1-3q0-6 3-10l2-1 1-3 6-10 4-5 1-2 4-5 5-3v-2q0-3 2-5z"/><path fill="#364f68" d="M105 153q7 3 14 2h3l22 1-1 3c-11 4-24 1-35-1l-22-2v2l-6 1v2q-1 3-5 5l-2 2-5 2 1-4h2l2-1 2-5 3-1 2-4q4-4 10-3l2-1z"/><path fill="#307045" d="m194 64-3 2 1 2-2 1-7 3-3 1-19 9h2l26 1v1l-38 4h-4l-1-3 12-7 2-1 6-2c11-4 11-4 20-10 6-2 6-2 8-1"/><path fill="#839ce0" d="M111 112h2l1 18 8-9v3l-2 2 1 1 1 7v2l6-2-3 3h-2v2h2l1 2 4 3v-4h2l1-2q4 7 5 15l-20-14-6-4-1 2-2 3-2 3-6 7q3-9 9-16v-5l1-3z"/><path fill="#7b82de" d="m131 117 9 4h-6l-3-2 1 2 1 9 2 1-1 8-4 1v4l-4-1-1-4h-2l1-3h-2l-1-9-2-1c7-9 7-9 12-9"/><path fill="#5783ac" d="m108 101 2 1v26q0 10-6 16-7 3-14 1H78l1-2h21v-2l3-3q3-1 5-6v-6l-1-14-3 4-1 3-1 3-1 3h-2v3h-2v4l-6 1q-4-5-5-12h-2q-4-4-3-7l-4-1 4-1 5 5 2 2 2 5 2 6h2l2-6h2v-2l3-8 1-3v-2l1-3z"/><path fill="#354465" d="M107 54h9l2 4 7 3v6l6 2-1 5-4-2-8-9q-2-4-6-5h-3v2h-2l-1 2-2 5H66l1-2 7-1h13l15-1 1-5h2z"/><path fill="#8c5baf" d="M145 97h9l-4 2q7 4 14 5v2l3 1 8 5v2h2l9 4 3 1 2 1q-5 1-11-2-8-4-17-6l-5-1-3-1v2l1 2 1 3v5l-6-7q-3-5-4-11 10 2 19 6l-21-9z"/><path fill="#7ac9d4" d="m110 59 3 1 1 3v5l1 2 4 18 1 3v2h2v3l-3-1-1-3-4-1-2 7h-1l-1-10-2 4v-9l1-3 1-3h2V66h-2l-1 2v4l-1 3-3 8c-2-7 3-17 5-24"/><path fill="#1f2932" d="m80 120 1 3 1 4 3 1 1 4 1 3v2l-6 3h-4l-1 2-4-1v-11c0-6 0-6 2-9z"/><path fill="#8796e8" d="m131 119 13 3q0 15-4 28h-2l-4-19-2 1v-4z"/><path fill="#50639b" d="M57 79h1v22q1 3-4 7l18 1v1H44v4h14l-4 2 1 1q3 4 2 7v3l1 3v38q-2-2-2-6v-9l-1-33h-2v-2h-3l-8-3v-6l3-1 3-1 3-2 4-3 1-5V87z"/><path fill="#daac7a" d="m176 49 2 1-34 27-2 1-5 6 4 1h-11l-2 2h-3l2-7 2-1q5-3 6-7l12-17 1 2-1 2-5 7-2 3-2 3-2 2-1 5q6-1 10-6l4-3 2-1 13-10z"/><path fill="#6cb4d9" d="M70 69h34l-1 6H89l-20 3q-2 3-2 8l-1 3v15h-1V88c-1-8-1-8 2-12q6-4 12-3h9v-2l-18-1z"/><path fill="#6c8acf" d="m112 59 3 1v3h2l3 4 5 7 1 4h2l-4 6h-3v9q-3-4-3-9l-4-12z"/><path fill="#51a8d5" d="m149 127 11 5q1 3-2 5l-3 3-3 2c-3 2-3 2-8 2l1-17z"/><path fill="#333224" d="m175 55 1 2-2 2-4 6 12-4h2l5-3h3l3-2 2 2 11-1v2q-8 3-16 3l-11 3h-4v2l-18 4q4-9 12-13z"/><path fill="#2e2a40" d="m159 113 9 3-3 1 2 3 1 3-1 2 2 1q3 7-1 13l-2 3-2 3-12 12-2 2-5 1v-2l4-4q5-3 9-9l5-4q3-3 3-7 1-9-5-16-2-2-2-5m-14 48-5 3-2-1v-2z"/><path fill="#462b60" d="M160 102q13-1 24 3v1h-3l-4 1-1 2 4 1v2h3l8 4v4c-15-5-15-5-21-11l-6-3v-2h-4z"/><path fill="#6976d3" d="M112 134q6 2 7 7l-2 1v8q-7 2-15 0z"/><path fill="#453760" d="m155 114 2 1v3h2q6 3 8 8 2 7-1 13l-6 4-2 4-4 4h-2l-1 3-5 2-2-1 2-2 8-7 2-2q6-5 7-12 0-5-4-9c-4-6-4-6-4-9"/><path fill="#283e50" d="M75 80h18l4 1q0 10-3 19l-5-1-2-5h-2l-1-2-7-1-1 2q-1 4-6 4l-1-4v-6l1-5h2l-1 9 2-1h14l4 6q3-3 3-8v-6l-19-1z"/><path fill="#606ea8" d="m56 117 4 2 1 49q5-1 8-5l2-2 2-2 2 3-6 5-1 3-8 1q-4-4-3-11v-9z"/><path fill="#200f56" d="M61 119h3v4l1 29v8l2 4h-3v5h-3z"/><path fill="#766f9c" d="M158 122q5 2 6 7 0 12-10 18l-4 2-1 3-4 3-2 1-1 1-2-1 3-2q10-8 18-18h-2l-1 2q-7 10-18 16l2-9 6-2 8-6 5-4-1-2v-2l-1-3z"/><path fill="#878533" d="m154 68 2 1-1 1-2 2-2 2-3 4 6-2 3-2 7-3 13-2-7 4-11 5c-15 6-15 6-22 6q3-6 9-9z"/><path fill="#24266d" d="M75 105h2l-2 9H44v-4h25l5-3z"/><path fill="#84ce9a" d="m149 84-3 1 1 2h11l7-1 4-1h9l3-1 8-1h11v1l-48 6-3 1-12-1 3-4 2-1 3-1z"/><path fill="#4e89ab" d="M80 103q5 5 6 12l-1 4-2-3-2-3h-3l-1 1-9 5v31l4 2-5 1-1-9v-21q0-6 2-7l-10-1v-1h17l2-5z"/><path fill="#3a4e6c" d="M85 78h10l5 2q2 13-6 23l-4-1-2-4 6 2 1-6v-3l2-10H77l-6 1 1-3q7-2 13-1"/><path fill="#5c538f" d="M109 58q4-1 8 1l7 10 2 1q3 2 2 5v3h-2l-3-5-2-2-4-8h-2l-1-3-4-1v3l-2 6q-4 2-10 1H71v-1h29l4-3 3-5h2z"/><path fill="#2f6093" d="m148 91 3 1 3 1h4l2 1v2h2q8 0 15 2l20 4v1c-20 1-20 1-27-4l-6-1-3-1h-4l-7-1-3-1-5-1v-3z"/><path fill="#3e8cd3" d="M119 140q9 3 13 11v2l-20-1 4-2v-8z"/><path fill="#4a668a" d="M102 152q12 4 23 4l15 1q-3 3-8 2c-23 0-23 0-31-4H91q-6-1-11 3l-2-1q4-5 10-5h2l2-1z"/><path fill="#63bbba" d="M110 66h2v11h-2v2l-5 19-1-2-3-1z"/><path fill="#6299c6" d="M70 69v2l-5 3q-3 1-4 5v6l-1 4v16h6v2h5v1H54l2-1 1-9V88q0-8 5-15c4-4 4-4 8-4"/><path fill="#9795cd" d="m142 101 7 2-1 2q2 8 8 14l5 12-4-2-3-2-5-3 1-3v-6l-4-5-2 1 1-2q0-5-3-8"/><path fill="#67a6be" d="m128 146 4 2 2 2 2 1v3q-15 5-30 0l-3-2h22l7 1-2-2z"/><path fill="#713c44" d="m168 24 1 2-12 18-2 3-11 13-2 2-1 1v-4h2l2-7 4-1 1-7 4-1 1-5h2q4-2 6-7l2-3 2-3z"/><path fill="#354b76" d="m149 98 25 2 4 1 8 1-1 2 9 2v1l-14-2q-10-4-20-3v2l-11-5z"/><path fill="#312b7b" d="m62 75 2 1v29h-4V82z"/><path fill="#8d8c53" d="m194 64-3 2 1 2-2 1-7 3-3 1-3 1-2 1-5 3-4 1-9 3h-8l8-3 2-1 13-5 14-8c6-2 6-2 8-1"/><path fill="#7d5e3f" d="m185 42 2 1v4l-6 5-2 1-8 6-13 9-2-1 5-5 2-1 12-10 2-1v-2l4-3 2-2z"/><path fill="#3e5097" d="M101 96h3l-4 18v2l-2 6-1-2-5 1z"/><path fill="#263e4e" d="m52 103-4 2-3 1-4 1v9h2v2h2l2 1h3l4 3v27h-1l-1-27-4 1q-6-1-10-7-2-5 1-9 6-6 13-4"/><path fill="#607bd3" d="m115 106 1 2h2q3 12-3 22l-2 1v-24z"/><path fill="#396f85" d="M81 114q4 4 3 7h2l2 7h-2v-3h-2l-4-7h-4l-3 1-4 1v29l6-3 2 1-5 4-5-1v-24l-1-4 3-5 3-1 3-1z"/><path fill="#6b98d6" d="m130 98 12 6 4 5v7l-4 1-5-8-2-2-1-2-2-2z"/><path fill="#224b33" d="M172 77v2l-3 1h13l4 1 20 1v2l-8 1h-4v-1l-34-1q2-4 6-5z"/><path fill="#93602f" d="m169 53 2 1-30 24-5 2-2-1 3-6 3 3v-2h3l1-2 5-5h3v-2h2v-2l4-1v-2h3v-2c5-5 5-5 8-5"/><path fill="#252d40" d="M115 52q4 1 4 5h2l-1 2-1-2q-5-3-10-2-2-1-4 3l-2-1 3-5zm-13 6 1 3-1 2-35 1 1-2 6-1h19q5 0 9-3"/><path fill="#5e3d23" d="m182 41 3 2c-13 11-13 11-21 12l-1 3h-2v2h-3v2l-4 1v2h-2v2l-4 1v-2h2v-2l5-2v-2l5-3 2-2 11-8 3-2z"/><path fill="#3c82ad" d="m88 71 1 3H77c-5 0-5 0-9 3l-2 2-2 2-1-7c8-6 16-4 25-3"/><path fill="#733e9c" d="M145 97h9l-4 2q7 4 14 5v2l3 1 8 6-20-8-3-1-7-3z"/><path fill="#84cee5" d="M113 68q4 4 4 10l1 2 2 13h2v3l-3-1-1-3-5-2z"/><path fill="#e18788" d="m147 55 1 2-1 2-5 7-2 3-2 3-2 2-1 5 2 2-4 3-3 2-5 1 2-7 2-1q5-3 6-7z"/><path fill="#ddeff8" d="m132 86 5 1v3h5l-10 4-3 1-2 1c-4-5-4-5-4-8l6-1z"/><path fill="#4d3a56" d="M178 119h3l17 1 1 2q2 4 6 4h-7q-4-2-10-2l5 3-2 1-6-3-3-1q-3-2-4-5"/><path fill="#382727" d="m167 49 3 1-3 3-2 1-4 1-1 2-3 3h-2v2l-4 2-2 1-2 1-2-1q5-8 12-15l-3 8 5-3z"/><path fill="#376b89" d="M103 67v1h-3l-25 1q-9-1-13 6l-2 2-2 2q-1-4 1-8c10-10 31-5 44-4"/><path fill="#afb1f2" d="m134 95 3 1v2q2 4 5 5l2 2 2 1-1 2-15-10 3 4-1 2-2-1-5-3 1 8-3-8-1-2v-2l3 1 8-1z"/><path fill="#8582b7" d="M159 136h2q-3 7-10 12l-3 3c-7 7-7 7-14 7l-6-3 6-1h2l1-2 2 1 5-2 6-6 2-2 4-3z"/><path fill="#2a596a" d="M57 75q2 7 0 16v8q-1 5-5 7h-8l10-4V80h2z"/><path fill="#233944" d="m85 130 5 4 4 1h4l-1 5h-8l-3 1h-4l-6 1 1-3 6-1h2z"/><path fill="#3e5e7a" d="M105 112h2q5 12 0 24h-1v-19h-2v4q-1 5-5 9h-2v-2h2v-3h2v-2l1-2v-3z"/><path fill="#387456" d="M183 87c-15 5-15 5-22 4v2l-15-1q4-4 9-3h2z"/><path fill="#742a39" d="M141 63q-1 6-6 11l-2 3-2 2h-3q-1-6 4-11c4-5 4-5 9-5"/><path fill="#2b354a" d="m182 103 16 1h11q3 0 5 2l-8 1v2l-12-1v-2h-4l-3-1z"/><path fill="#572a2a" d="m147 60 2 1-2 4 3 1h-2v2q-2 4-5 6h-3v2l-3-1q1-6 5-11h3z"/><path fill="#23313e" d="M52 124h1v43h-1l-1-16v-5h-1z"/><path fill="#97aedf" d="M111 112h2c2 22 2 22-6 32l-6 6q3-9 9-16v-5l1-3z"/><path fill="#4e7ccc" d="M127 117q4 4 4 10l-1 5h-2l-1-2-3-1v-4l-5 2 3-4 1-2z"/><path fill="#362c7f" d="M87 117q3 0 5 2l2 2 1-2 2 1q0 6-3 11-3 0-5-4z"/><path fill="#6fadd6" d="m109 87 2 1v9l-1-4h-2v2l-7 22-1 3v2l-3 4 3-14v-2l6-20 2 1z"/><path fill="#7c88e8" d="M112 134q6 2 7 7l-9 4v2l-4 1z"/><path fill="#66c4d8" d="M130 106h4q4 4 4 10c-7 0-7 0-10-2v-6z"/><path fill="#77a4cf" d="M132 138q4 4 5 9v3l1 3-14-9 1-3 5 3v-4h2z"/><path fill="#324768" d="M175 97q12 0 23 3v2l12 2v1l-18-1-1-2-15-3z"/><path fill="#8ae" d="M138 91h4v3h2l30 5v1l-17-2h-9q-6 1-10-3z"/><path fill="#3d6b8a" d="m46 116 10 1 1 7v3l1 3v38q-2-2-2-6v-9l-1-33h-2v-2l-7-1z"/><path fill="#6e94c0" d="M108 93h2l1 12v29l-2 1v-33l-4 2q0-5 3-11"/><path fill="#626134" d="m202 61-9 3-9 3q-7 3-16 3 4-3 9-3v-2c17-7 17-7 25-4"/><path fill="#29364c" d="M77 63h21v1h-3l-14 1q-12-1-21 6l-4 9h-1l1-8h2v-2l3-3 2-2q6-2 14-2"/><path fill="#629cbf" d="m70 116-3 2v35h3l-1 4-4 3-1-44z"/><path fill="#6ea9db" d="M135 134h7q1 8-2 16h-2z"/><path fill="#8379e9" d="m131 119 13 3-1 5-8 1z"/><path fill="#767ecf" d="m128 117 12 4h-6l-3-2 1 2 1 9 2 1-1 8-3-4-2-11-1-4z"/><path fill="#283358" d="M160 102q13-1 24 3v1h-3l-4 1-1 2-9-4-7-2z"/><path fill="#447a9b" d="M99 91q1 5-1 9l-1 3-1 2h-2v3l-4 1-3-5-1-3-1-3 1-2 4 5 4 1z"/><path fill="#25165f" d="M44 110h22l1 3H44z"/><path fill="#2d2c71" d="M80 146h19l-2 5H81v-1l5-1v-2h-6z"/><path fill="#6e9ed4" d="M107 66q2 4-1 10v2l-4 7-1-9H80v-1h23l1-6h2z"/><path fill="#d398f2" d="m139 96 6 3 7 4 3 1 3 2 3 1 7 3c-4 1-4 1-8-1l-3-1-3-1-3-2-7-3-2 2-5-5z"/><path fill="#439ebd" d="M80 70h23l-1 4H89l-1-3h-8z"/><path fill="#5a477f" d="m155 114 2 1v3h2q4 2 6 5 2 10-3 18h-3l1-2q3-5 3-10l-4-6c-4-6-4-6-4-9"/><path fill="#332c28" d="M192 38v5l-3 1v2q-2 4-5 6l-2 2q-2 3-5 2 2-4 6-7l2-2 2-1-1-2 1-5z"/><path fill="#81b5c2" d="m112 59 3 1v3h2l4 7-1 2-3 1-2 3z"/><path fill="#23074f" d="M61 143h1v2l1 7 1 3v5l3 4h-3v5h-3z"/><path fill="#68cbdd" d="m147 126 13 6v3l-5 2v-5h-9z"/><path fill="#6facdb" d="M80 103q5 5 6 12l-1 4-4-6-5 1z"/><path fill="#435f84" d="m97 79 3 1q2 12-6 23l-4-1-2-4 6 2v-3l3-6 1-10z"/><path fill="#414130" d="m200 63 2 1-2 1-1 3-5 2-2 1-7-1 5-2-1-2 4-2 3-1z"/><path fill="#39458d" d="m62 75 2 1v17l-2-3-1 6h-1V85c0-7 0-7 2-10"/><path fill="#4b84ae" d="m109 61 1 2q0 5-4 6H71v-1h28q6-1 9-6z"/><path fill="#397a93" d="M57 79h1v22l-2 6h-8l2-1 5-4 1-5V87z"/><path fill="#4f6b98" d="M73 77h23l6 1v8l-2 4v-5l-1-3v-2l-8-1H72z"/><path fill="#785fdb" d="m115 112 4 2q1 7-2 12l-3-1z"/><path fill="#273647" d="M72 81h22q-1 3-6 2H76l-1 3-2 6-2-1z"/><path fill="#37372e" d="m192 71-8 4-2 1-6 1h-4q9-8 20-6"/><path fill="#393555" d="m116 57 9 4v6l6 2-1 5h-2l-3-4z"/><path fill="#63252e" d="M149 46h1v5l-2 1q-4 3-5 7h-2v4h-3q2-9 9-14z"/><path fill="#ad5a62" d="m157 40 1 2-4 6-2 3-7 8-2 2-2 2v-4h2l1-3 1-4 2-1q5-1 7-6l2-3z"/><path fill="#42507e" d="m106 60 1 2-3 5H80v-1h2l8-1h2q9 1 14-5"/><path fill="#373652" d="m144 156 4 1-3 1v2q-10 4-21 2l-2-2 21-1z"/><path fill="#4b8ada" d="M122 125h2v4l4 1-1 4-5 2q-2-4-1-10z"/><path fill="#799fd6" d="m77 96 1 3-5 10H48v-1h23l2-6z"/><path fill="#65513f" d="m185 42 2 1q1 5-2 6l-10 4q2-8 10-11"/><path fill="#396f80" d="M106 156h-2l-11-1h-2q-6-1-11 3l-2-1q4-5 10-5h2l2-1q8 0 14 5"/><path fill="#546cd5" d="M144 136h3v2h5v4q-3 3-8 2z"/><path fill="#21352b" d="m172 77 4 1-1 2h4l4-1h2l13 1-1 2-30-1 2-2h3z"/><path fill="#35768e" d="M106 136q1 4-2 7t-8 2H78l1-2h21v-2z"/><path fill="#306171" d="m69 119 2 1-1 1v24h5l3-1q-4 5-9 5l-1-9v-18z"/><path fill="#4971bc" d="M146 110q5 4 6 9l-3 4h-2l-1-8z"/><path fill="#366c7f" d="M81 114q4 4 3 7h2l2 7h-2v-3h-2l-4-7h-7c4-4 4-4 8-4"/><path fill="#357081" d="m70 79 2 1-2 4h-2l1 14h5l-2 4h-5V84q0-3 3-5"/><path fill="#23343e" d="M110 159v1h-10v-2l-6 1h-4l-8 3c4-9 20-5 28-3"/><path fill="#25414b" d="M77 116q5 1 6 5l2 7-3 1-3-9h-8v-2z"/><path fill="#5c4bb4" d="M147 144h3q-1 4-6 7l-2 2-2 1 1-4v-3q1-4 6-3"/><path fill="#6387bc" d="M78 112q5 0 8 5l2 2q3 5 1 11l-3-9h-2q-4-4-3-7l-4-1z"/><path fill="#99a0c9" d="m140 114 2 1 4 1v7l-10-3 3-1z"/><path fill="#65abd3" d="M103 83v8l-1 2v3l-1 2-2 6-2 1q0-7 3-14l1-3z"/><path fill="#70abdc" d="m125 100 7 2 1 4-2 1-4 3z"/><path fill="#8ddbe7" d="M113 68q5 6 4 13v3l-3 2-1-11z"/><path fill="#4b3725" d="m182 41 3 2c-9 8-9 8-16 8l10-8z"/><path fill="#6888be" d="m174 99 23 3v1l-24-2z"/><path fill="#effacf" d="M137 87v3h5q-4 3-10 1-3 0-5-3 5-3 10-1"/><path fill="#5c743c" d="M166 79q-5 5-11 4v2h-6v2h-3v-2c17-8 17-8 20-6"/><path fill="#70599d" d="m160 138 2 1-5 5-3 3-4 2-1 3-4 3-2 1-1 1-2-1 3-2 4-4 1-1z"/><path fill="#86c2de" d="M110 79q3 5 2 12v7h-1l-1-10-2 4V82z"/><path fill="#e48eaa" d="m132 77 1 7q-3 3-8 3c1-7 1-7 5-9z"/><path fill="#6b92cb" d="m143 107 3 2v7l-4 1-2-6 1-2h2z"/><path fill="#4563a9" d="M123 103q4 4 4 10 0 5-3 7l-2 2-2 2q0-5 3-9z"/><path fill="#f1e2a7" d="m133 83 1 2 12-2-9 5-5-1-1 1h-5q3-4 7-5"/><path fill="#34679c" d="m69 71 2 1 5 1v1l-4 1q-5 1-8 6l-1-7q3-4 6-3"/><path fill="#524176" d="M158 142q0 5-5 9l-3 3-4 2-2-1 2-2 8-7z"/><path fill="#42678c" d="M105 112h2q5 12 0 24h-1v-3l1-5v-2l-1-10h-2z"/><path fill="#1e2a42" d="m180 95 21 3-1 2q-11 0-20-5"/><path fill="#524cc6" d="M121 112h3q-1 8-6 14l-1-4 1-1v-3z"/><path fill="#9eabe8" d="M122 96q7 0 11 6l-1 2-2-1-5-3 1 8-3-8-1-2z"/><path fill="#3f8fb4" d="m105 85 2 1c-1 9-1 9-3 12v-2l-3-1 2-8h2z"/><path fill="#885a2f" d="m169 53 2 1-8 7-5 3-4-1 4-1v-2h3v-2c5-5 5-5 8-5"/><path fill="#78363e" d="M152 50h2q-2 9-9 14l-2-1z"/><path fill="#7f63b2" d="m147 104 4 1-1 3 2 1 1 5h2l3 6-1 2-6-7q-3-5-4-11"/><path fill="#98a1dd" d="m142 101 7 2-1 2q0 4 3 8l-1 2-4-5-2 1 1-2q0-5-3-8"/><path fill="#7d5e2c" d="m154 68 2 1-1 1-2 2-2 2-3 4 4-1v2l-8 1q3-8 10-12"/><path fill="#4b7bd0" d="M116 142h4l-1 9 4 1h-11l4-2z"/><path fill="#2c475c" d="M104 121q3 3 2 8l-1 3-2-3-4 4z"/><path fill="#70b6e3" d="M96 106q1 5-1 9l-1 3-1 2q-4-3-3-8h4v-2z"/><path fill="#386eb1" d="M127 117q4 3 3 8l1 3v2l-5-6-3-1z"/><path fill="#1f323e" d="m51 99 1 3h-2l-3 1h-3l-2 1-4 9-2-3 5-8 5-1h5z"/><path fill="#7d5ac0" d="M145 97h9l-4 2 4 5-9-3z"/><path fill="#c3caf5" d="m138 92 1 7-4-2-6-1-1 2v-3l4-1 2-1z"/><path fill="#46acc4" d="M107 76h2l-1 13-2-3-2 1z"/><path fill="#767545" d="m181 69 1 3-6 3-3 2h-7l2-1 4-2q5-4 9-5"/><path fill="#44adc8" d="M124 146h4q5 4 4 7l-9-1 2-4z"/><path fill="#75c0c8" d="m131 144 1 2 4-1 2 8-11-7z"/><path fill="#263842" d="m79 119-6 4v18h-2v-21z"/><path fill="#5892da" d="M114 98h7l-4 1v9l-4-1z"/><path fill="#5f7bb8" d="M144 129h1v9l-3 11h-1q0-10 3-20"/><path fill="#33293b" d="M187 123q7 0 13 2v1h-6v2l3 1-2 1z"/><path fill="#3b75a3" d="M101 96h3l-2 13h-1c-2-7-2-7-1-11z"/><path fill="#294d77" d="m153 92 20 3-2 2h-6l-3-1h-2v-2h-6z"/><path fill="#5b73a7" d="m97 149 15 1v2l-5 1h-3l-9-2h2z"/><path fill="#907dc2" d="M159 136h2q-1 5-6 8l-2 2-6 4q2-5 7-8z"/><path fill="#6174cb" d="m112 134 7 6-6 1-3-2z"/><path fill="#478ed3" d="m147 133 6 1 1 6-2 1v-3h-5l-1-4z"/><path fill="#7cab63" d="m147 83 2 1-3 1 2 4h-9q1-3 4-5z"/><path fill="#7aa8cf" d="M111 98h2v14h-2z"/><path fill="#292544" d="m165 103 13 2-2 4-11-5z"/><path fill="#36639a" d="m99 103 2 1q1 8-2 15h-1v-8l-1-4z"/><path fill="#3664a3" d="M157 96h10l9 2v1l-19-2z"/><path fill="#334e3c" d="m182 88 4 1h2v1l-19 1q6-4 13-3"/><path fill="#e9ba81" d="m144 74 2 1-2 1-2 2-2 2-3 4 4 1h-7q0-4 3-6l3-2 2-2z"/><path fill="#d4d485" d="m185 68-7 4-2 1-8 2q1-3 4-4l3-2 3-1z"/><path fill="#405578" d="m76 159 2 1q-2 7-9 10l-1-3 2-1q4 0 4-4l1-2z"/><path fill="#6fd6dc" d="m137 139 4 1-1 10h-2z"/><path fill="#5f75a2" d="m109 58 8 1 3 6-1 3-2-5h-2l-1-3-4-1-2 4-2-1 1-2h2z"/><path fill="#70a8da" d="m65 150 2 1v2h3l-1 4-4 3z"/><path fill="#5e347b" d="M164 112q9 1 17 5v1q-9 0-17-5z"/><path fill="#653688" d="M160 104h4v2l3 1 8 6c-10-3-10-3-13-7z"/><path fill="#41549a" d="m149 98 18 1v1l-7 1h-4q-3 1-7-2z"/><path fill="#a75a41" d="m136 73 2 1 5 2-5 4-4-1z"/><path fill="#9e466b" d="m134 71 2 1-6 8-2-1v-5l2-1z"/><path fill="#322722" d="M184 40q-1 4-5 4l-2 2-5 3-2-1 6-5q4-4 8-3"/><path fill="#3e3633" d="M192 38v5l-5 2-1-4q2-4 6-3"/><path fill="#5b3838" d="m162 35 4 1c-4 7-4 7-8 8q1-5 4-9"/><path fill="#353f88" d="m85 111 5 2 2 7-2-1v-2h-4z"/><path fill="#233239" d="M182 90v2h-6l1 3-8-2v-2h5l3-1z"/><path fill="#9c88ca" d="m121 71 5 5v2h2l-4 6-3-1 3-2z"/><path fill="#424022" d="M168 69q-3 4-8 5h-5q4-6 13-5"/><path fill="#78a7c7" d="m108 136 2 3-8 11-1-2 3-6 2-3z"/><path fill="#7497db" d="M135 131h8v7l-1-4h-7z"/><path fill="#649fd7" d="M122 121v3l-2 2 1 5h-5q0-6 6-10"/><path fill="#546f9e" d="M107 106q3 6 2 11l-2-5-3 1 1-6z"/><path fill="#3f879c" d="M85 96q4 2 4 5l3 4 2 1v2l-4 1-2-5-2-3z"/><path fill="#305a6e" d="M95 93h1c0 7 0 7-2 10l-4-1-2-4 6 2z"/><path fill="#8ec1e9" d="M138 91h4v3l7 1v1h-10z"/><path fill="#843839" d="m142 64 1 4h-2l-1 8-3-1q1-6 5-11"/><path fill="#45362d" d="m175 55 1 2q-4 6-11 8l-2-1z"/><path fill="#2c3d4b" d="m82 158 2 1-9 9-1 2h-2l5-7h2v-2l1-2z"/><path fill="#8090e2" d="M130 137v7l-4-1-1-4z"/><path fill="#203f4a" d="M161 91h8v2l4 1h-11z"/><path fill="#81a9ba" d="M117 78v2l1 2 3 1v10q-4-7-4-15"/><path fill="#303022" d="m194 56 3 2-2 3h-9l3-3h3z"/><path fill="#6978b3" d="m158 135 2 1q-3 6-10 9 0-3 2-5l2-2 2-2z"/><path fill="#53ccda" d="m129 109 5 1 1 4h-7z"/><path fill="#4a7ccf" d="M117 99h6l1 4-6-1v6h-1z"/><path fill="#6da6da" d="M116 92h3l1 3 2 1-1 3-5-1z"/><path fill="#2a4e5b" d="M70 82h2v5l-1 3v5l2 1h-4v-9z"/><path fill="#89a4d2" d="M116 63c4 5 4 5 5 9l-4 1z"/><path fill="#3d3f33" d="M208 57v2l-15 3 7-4h3z"/><path fill="#6a6bdf" d="m115 112 4 2-1 5h-3z"/><path fill="#6b98cc" d="M77 96v5l-1 3-2 3-1 2-2-3z"/><path fill="#284a56" d="m85 92 4 1 1 4h4v3l-5-1-2-5h-2z"/><path fill="#86c1dc" d="m118 86 2 7h2v3l-3-1-1-3-4-2h2v-2h2z"/><path fill="#214957" d="m61 68 2 1-2 3q-4 3-5 8h-1l1-8h2v-2z"/><path fill="#5196b4" d="m103 143-2 7h-3l1-5-4-1h3z"/><path fill="#79b2e5" d="M117 130h3l1 7-6-3z"/><path fill="#5e54a2" d="M113 116h1v4l1 3 2 4-4 4z"/><path fill="#4a7e9a" d="M103 110h1q0 8-3 15v-12z"/><path fill="#342a4c" d="m159 113 8 3h-4l-1 4q-4-4-3-7"/><path fill="#2d1968" d="M56 110h10l1 3h-7v-2z"/><path fill="#7c94e1" d="m130 98 9 5-2 2q-4 0-6-3z"/><path fill="#3a5c4b" d="M202 82h4v2l-8 1h-4q3-4 8-3"/><path fill="#a68b41" d="m140 79 1 2h6q-4 3-10 3z"/><path fill="#3d292e" d="M166 29h4l-2 5-4 1-1 2z"/><path fill="#7a8ac5" d="m131 129 4 2-1 8-3-4z"/><path fill="#543764" d="m173 117 13 3h-3l-6 1-4-2z"/><path fill="#56abc8" d="m78 107 1 2 3 1 1 4-2-1-5 1z"/><path fill="#598eb5" d="m79 93 5 1 2 5-2 1-1-2-4-3-1 2z"/><path fill="#663425" d="M141 68h7l-5 6-3-1z"/><path fill="#8dc0d0" d="M153 124q5 1 8 5l-1 2-8-5z"/><path fill="#6d92b4" d="m146 121 1 2 5 2h-6l-2 4v-6h2z"/><path fill="#8b6fdf" d="m136 121 8 1-1 4v-2l-2 1-5-1z"/><path fill="#84a9d0" d="m140 114 2 1 4 1-1 4-6-1z"/><path fill="#3c8047" d="m149 85 11 1q-4 3-9 2h-4l2-1z"/><path fill="#93933f" d="m177 70-4 2-3 1h-6l6-4z"/><path fill="#51b0c9" d="M91 70h12l-1 4-2-1-9-2z"/><path fill="#5f5192" d="m59 166 2 2h7v2l-8 1-2-3z"/><path fill="#5a8ecb" d="M119 140q5 2 8 6-6-1-10-5z"/><path fill="#8e7ced" d="M137 124h6v3l-7 1z"/><path fill="#418da4" d="M78 112q4 0 6 3l1 4-1 2-3-7-4-1z"/><path fill="#7d96df" d="m125 100 5 1 2 3-6 1z"/><path fill="#d9c1dd" d="m125 82 2 1-1 5h-3l1 5-2-1c0-5 0-5 2-8z"/><path fill="#8e7132" d="m145 75-1 5 7-1-4 2h-6z"/><path fill="#38402d" d="M172 77v2l-5 1v2h-6q5-5 11-5"/><path fill="#7a64af" d="m120 68 5 4q3 2 3 6h-2l-3-4-2-2z"/><path fill="#23404f" d="M71 64h6v1h-2l-13 3 1-3z"/><path fill="#34262a" d="m163 40 1 3-2 3h-2l-2 4-1-2z"/><path fill="#7a66dc" d="m112 146-1 4-7-1q3-4 8-3"/><path fill="#5ebad8" d="M130 106h4v4l-5-1-1 4v-5z"/><path fill="#302a7b" d="M75 105h2l-1 7-4-2z"/><path fill="#579aae" d="M148 91v2h-2v2l-4-1v-3z"/><path fill="#3f1e2a" d="m138 59 1 2-2 3-2 2-4 3v-2l2-1 1-4h3z"/><path fill="#52272f" d="m162 30 2 1-5 7-3-1 2-3h2z"/><path fill="#397b94" d="m75 146 2 1-5 4-5-1v-2h3z"/><path fill="#658cdf" d="m121 131 6 3-5 2z"/><path fill="#307fc7" d="m124 122 4 2v2h-9z"/><path fill="#2a4f59" d="m80 117 1 3H71v-2z"/><path fill="#6eb5dd" d="M56 115h11l-3 1v2h-4v-2z"/><path fill="#3f4aa7" d="m124 114 1 4-5 6q0-6 4-10"/><path fill="#5e458d" d="m151 108 5 1-1 5h-2v-3h-2z"/><path fill="#367285" d="m88 100 3 2h4l-1 4-5-2z"/><path fill="#27457b" d="M175 97h8l1 3-8-1z"/><path fill="#bc9ced" d="m139 96 5 2v2l-6 1z"/><path fill="#b9f6de" d="m136 88 1 2h5q-5 4-12 1v-1z"/><path fill="#22333e" d="m74 82 2 1-2 2zm-1 3v7l-2-1z"/><path fill="#535a35" d="m164 78 2 1-6 4-4-1 4-2 2-1z"/><path fill="#5e4c25" d="m152 72 1 2 3 2-8 2z"/><path fill="#53bec7" d="M109 68h1v12l-1-4h-2z"/><path fill="#2e302b" d="m203 60 3 2-4 4h-2v-5z"/><path fill="#2b2b3e" d="m70 170 4 1-2 2h-3zm-3 3 2 1-2 2-3-1z"/><path fill="#507099" d="m90 128 2 1 5 1v2l-6 1-2-3z"/><path fill="#335c71" d="m85 125 1 3 3 1 2 4-6-3z"/><path fill="#8573af" d="m158 122 4 3v6q-3-2-4-6z"/><path fill="#7e85cf" d="m151 119 3 1-1 5-4-1z"/><path fill="#4354cd" d="m121 109 4 1-1 4v-2l-5 2z"/><path fill="#a47cd7" d="m142 101 7 2-2 4-5-5z"/><path fill="#f7f6f0" d="m123 88 5 1 1 2-5 1z"/><path fill="#ebafb1" d="m129 82 4 2c-5 3-5 3-8 3z"/><path fill="#8d9fa0" d="M136 152h4v4l-6-1 2-1z"/><path fill="#438095" d="M82 153h3l-2 4-5 1z"/><path fill="#5a4194" d="m142 147 4 2-6 5z"/><path fill="#67bcde" d="M136 136h4l1 4-4-1-1 2z"/><path fill="#7da3cd" d="m115 129 1 3-1 2 3 1-3 1-2-1z"/><path fill="#2e2737" d="m168 117 11 4-4 1-7-4z"/><path fill="#4a98b6" d="m57 104 8 1v1l-11 2 2-1z"/><path fill="#3c5495" d="m84 100 2 4h-3l-1 3-2-5z"/><path fill="#45377a" d="M154 100h5l1 4-6-2z"/><path fill="#83a8d2" d="m109 87 2 1v9l-1-4h-2z"/><path fill="#638ac0" d="m101 76 3 1v6l-2 2z"/><path fill="#608dbc" d="m109 61 1 2-4 6-2-1q1-5 5-7"/></svg>
