<svg xmlns="http://www.w3.org/2000/svg" width="224" height="224"><path fill="#1f222a" d="M0 0h224v224H0z"/><path fill="#77b7de" d="m176 49 2 1a516 516 0 0 1-24.275 19.684c-3.172 2.42-6.327 4.864-9.475 7.316l-1.845 1.422C139.23 80.799 139.23 80.799 137 84c12.147-3.373 23.619-8.203 35.078-13.395 1.067-.467 2.135-.935 3.234-1.418l2.989-1.332c2.807-.89 3.998-.9 6.699.145-7.76 3.769-15.544 7.34-23.625 10.375l-2.006.758C155.941 80.396 152.607 81.406 149 82l-1 3h-2l1 2q2.125.04 4.25.063l2.39.035c2.29-.01 2.29-.01 4.166-.573 2.562-.613 5.031-.826 7.659-1.025l3.174-.25 3.298-.25q3.233-.246 6.465-.5l2.89-.219c2.62-.272 5.129-.756 7.708-1.281a127 127 0 0 1 5.813-.062l2.957.027L200 83v1c-19.298 2.895-38.519 5.659-58 7v3l1.753.244c21.229 2.96 21.229 2.96 30.247 4.756v1l-2.457-.219C164.34 99.177 157.227 98.87 150 99c4.642 2.533 8.652 4.465 14 5v2l2.688.75c3.444 1.3 5.642 2.737 8.312 5.25v2l2.137.34c3.137.723 5.764 1.855 8.676 3.222l2.957 1.38L191 120c-4.244 1.415-6.798-.493-10.625-2.312-5.765-2.637-11.104-4.632-17.375-5.688a279 279 0 0 1-4.562-1.125L155 110c.976 6.554 2.495 10.157 7 15 2.005 2.825 2.007 3.88 1.813 7.438C162.176 139.61 157.493 144.3 152 149h-2l-1 3c-3.911 3.738-6.62 5.343-12.062 5.438A210 210 0 0 1 130 157l-2.616-.186a887 887 0 0 1-8.821-.689l-2.909-.237c-4.532-.417-8.527-.803-12.654-2.888v-1h9v-2h-11c1.7-4.251 3.588-7.893 5.879-11.816 2.238-4.36 2.24-8.267 2.219-13.137l-.005-2c-.005-2.1-.018-4.198-.03-6.297q-.009-2.14-.014-4.281-.017-5.235-.049-10.469l-5 2-.34 3.004c-.594 4.16-1.837 7.978-3.222 11.933l-.71 2.073A966 966 0 0 1 98 126c-1.14-3.375-.844-5.426.18-8.809l.816-2.763.879-2.865q.843-2.81 1.68-5.622l.765-2.51c.688-2.461 1.21-4.919 1.68-7.431h-3l-.48 1.95c-1.96 7.585-4.598 14.786-7.52 22.05-2.167-2.167-2.805-3.672-3.91-6.5l-1.06-2.687L86.936 108q-1.078-2.75-2.16-5.5l-.96-2.469c-.793-2.05-.793-2.05-1.817-4.031l-3-1-.75 2.5c-1.417 3.968-3.365 7.731-5.25 11.5H48v-1l8-1c1.032-3.095 1.14-5.306 1.176-8.55l.072-3.307a682 682 0 0 0 .094-6.875c.16-6.36.335-10.458 4.658-15.268 5.35-4.948 9.1-5.114 16.25-5.07q2.14-.014 4.281-.032a358 358 0 0 1 6.715.002c8.358.522 8.358.522 15.645-2.516 1.302-2.1 1.302-2.1 2.109-5.384h2v-2c2.963-.423 5.116-.63 7.629 1.16 3.066 3.005 5.179 6.153 7.371 9.84l2.125 1.375c2.826 2.45 2.604 5.03 2.875 8.625 2.784-2.654 5.037-5.311 7.164-8.512l1.711-2.545 1.75-2.63q1.732-2.605 3.477-5.2l1.541-2.319C146 56 146 56 148 55c-1.888 5.8-5.662 10.4-9.187 15.293l-1.477 2.09-1.358 1.887c-1.224 1.834-1.224 1.834-.978 4.73 4.24-.534 6.998-3.135 10.188-5.75q1.863-1.498 3.73-2.992l1.994-1.6c4.353-3.456 8.796-6.796 13.225-10.153A290 290 0 0 0 176 49"/><path fill="#6584b7" d="m168 24 1 2c-.996 2.164-.996 2.164-2.437 4.625l-1.434 2.477L164 35l2 1c-3.84 5.89-7.874 11.601-12.031 17.27C151.2 57.11 148.596 61.042 146 65l9-3v-2a393 393 0 0 1 5-3l1.75-1.812c3.374-3.281 7.31-5.639 11.25-8.188q1.658-1.122 3.313-2.25c4.785-3.116 4.785-3.116 6.687-3.75 2.25.875 2.25.875 4 2v4a56 56 0 0 1-5.875 4.813l-1.779 1.324a256 256 0 0 1-13.323 9.195c-2.365 1.95-3.59 3.98-5.023 6.668 3.238 0 6.335-.884 9.492-1.562C173 67 173 67 177 67v-2c8.182-3.214 16.322-4.095 25-5-3.524 2.784-6.857 4.327-11 6l1 2-1.617.67A4428 4428 0 0 0 183 71.75l-2.543 1.055A215 215 0 0 0 165 80q-2 1.002-4 2l2.063-.035c8.684-.081 17.28.42 25.937 1.035v1c-8.624 1.369-17.108 2.303-25.82 2.754-2.576.2-4.704.614-7.18 1.246a85 85 0 0 1-4.75.063l-2.422-.028L147 88l-1-3c3.759-3.322 7.535-5.262 12.188-7l2.003-.775a832 832 0 0 1 3.975-1.524c2.454-.938 4.895-1.91 7.334-2.888.77-.309 1.542-.617 2.336-.934A409 409 0 0 0 183 68a208 208 0 0 0-24.437 9.5C143.67 84.323 143.67 84.323 137 84c1.543-4.1 4.153-5.883 7.625-8.437q1.764-1.318 3.523-2.641l1.89-1.42c3.466-2.653 6.835-5.424 10.212-8.19 5.525-4.515 11.08-8.98 16.75-13.312l-1.328.996-1.922 1.441-2.223 1.668a3650 3650 0 0 1-5.273 3.946c-5.4 4.037-10.78 8.096-16.129 12.199l-3.117 2.39a158 158 0 0 0-6.242 5.169C138 80 138 80 135.625 79.813L134 79c.604-2.988 1.519-5.066 3.25-7.566l1.344-1.971L140 67.438q1.38-2 2.75-4.004l1.234-1.78c1.19-1.796 1.19-1.796 2.016-4.654l-1.504 2.273a1853 1853 0 0 1-5.392 8.076 677 677 0 0 0-3.088 4.674l-1.828 2.727-1.645 2.484L131 79h-3l-.125-3.187c-1.11-4.838-3-5.869-6.875-8.813a88 88 0 0 1-3-5c-1.99-2.654-2.84-2.966-6.187-3.687L109 58v2h-2l-.875 2.313C105 65 105 65 103 68c-3.053.385-3.053.385-6.95.406l-2.093.033c-2.215.034-4.43.05-6.644.061-2.9.015-5.8.049-8.7.094l-3.913.021c-5.374.559-9.312 1.887-13.075 5.948-2.436 3.654-2.752 5.583-2.8 9.96l-.073 3.344a702 702 0 0 0-.094 6.992l-.084 3.352-.044 3.072C58 104 58 104 54 108l19 1 2-6c.675-1.474 1.38-2.935 2.125-4.375l1.07-2.086L79 95c1.809.09 1.809.09 4 1 1.598 2.879 1.598 2.879 3.063 6.563l.775 1.916c.738 1.834 1.45 3.677 2.162 5.521l1.05 2.707A318 318 0 0 1 92 118c2.215-2.215 2.724-3.637 3.727-6.57l.937-2.715.961-2.84.984-2.863Q99.813 99.508 101 96h3c-.605 6.064-1.863 11.655-3.562 17.5l-.71 2.492Q98.873 118.998 98 122c2.61-4.588 3.484-9.695 4.707-14.785 1.492-3.71 2.712-4.6 6.293-6.215 2.64 2.64 1.23 9.925 1.24 13.508.01 2.088.04 4.174.073 6.262l.015 4.02.028 3.677c-.62 6.153-3.564 11.108-6.543 16.47l-1.606 2.903L101 150h11v2l-6 1c12.42 3.268 25.237 3.177 38 3l-1 3c-10.516 3.505-24.188 1.326-34.858-.856-7.338-1.48-14.675-1.853-22.142-2.144v2l-6 1-.125 1.688c-1.102 2.913-2.91 4.218-5.344 6.078-1.7 1.28-1.7 1.28-3.344 3.484-3.318 2.655-7.01 2.79-11.187 2.75l-2-1v-2h-2c-1.681-2.95-2.26-5.109-2.319-8.493l-.06-2.669-.035-2.854-.059-2.942c-.06-3.097-.106-6.195-.152-9.292q-.057-3.153-.117-6.305Q53.116 129.723 53 122l-10-4v-2h-2v-9c4.615-2.425 7.821-3.964 13-5V80h2l.438-3C58.13 71.399 62.06 67.92 67 65c5.263-1.224 10.44-1.393 15.813-1.5q2.128-.084 4.255-.18c4.978-.209 9.95-.32 14.932-.32l1-5h2l2-4h9l2 4c2.295 1.407 4.434 2.145 7 3v6l6 2v-2l2-1 1.25-3.062c1.497-3.662 3.498-6.51 5.934-9.61a204 204 0 0 0 4.101-5.469l1.203-1.65q1.733-2.381 3.461-4.768C151 39 151 39 154 38l-.312-2.25C154 33 154 33 156.313 30.625L159 29l3 1 2.438-2.437z"/><path fill="#68a7b5" d="M145 97h9l-4 2c4.642 2.533 8.652 4.465 14 5v2l2.688.75c3.444 1.3 5.642 2.737 8.312 5.25v2l2.137.34c3.137.723 5.764 1.855 8.676 3.222l2.957 1.38L191 120c-4.244 1.415-6.798-.493-10.625-2.312-5.765-2.637-11.104-4.632-17.375-5.688a279 279 0 0 1-4.562-1.125L155 110c.976 6.554 2.495 10.157 7 15 2.005 2.825 2.007 3.88 1.813 7.438C162.176 139.61 157.493 144.3 152 149h-2l-1 3c-3.911 3.738-6.62 5.343-12.062 5.438A210 210 0 0 1 130 157l-2.616-.186a887 887 0 0 1-8.821-.689l-2.909-.237c-4.532-.417-8.527-.803-12.654-2.888v-1h9v-2h-10c3.06-5.532 6.445-10.774 10-16 3.493 2.003 6.586 4.187 9.688 6.75 4.936 4.008 10.058 7.673 15.312 11.25q-.715-2.688-1.437-5.375l-.81-3.023c-.655-2.556-.655-2.556-1.753-4.602l-3 1v4l-4-1-1-4h-2c0-2 0-2 1-3h-2c-1.478-2.957-1.06-5.742-1-9l-2-1 2-3-1.496 1.75-1.942 2.25-1.933 2.25L114 131h-1v-24l3-1 1-7h6l2 5v-4l2.438.5c2.29.532 2.29.532 3.562.5l-1-3c3.196 1.538 6.216 3.289 9.25 5.125l2.703 1.633L144 106l-2-4c2-1 2-1 4.155-.287l2.634 1.158 2.852 1.24 2.984 1.326 3.008 1.315Q161.32 108.366 165 110l-3.07-1.426-4.055-1.886c-.665-.31-1.33-.618-2.016-.936A402 402 0 0 1 144 100z"/><path fill="#6b3d43" d="m168 24 1 2c-.996 2.164-.996 2.164-2.437 4.625l-1.434 2.477L164 35l2 1c-3.84 5.89-7.874 11.601-12.031 17.27C151.2 57.11 148.596 61.042 146 65l9-3v-2a393 393 0 0 1 5-3l1.75-1.812c3.374-3.281 7.31-5.639 11.25-8.188q1.658-1.122 3.313-2.25c4.785-3.116 4.785-3.116 6.687-3.75 2.25.875 2.25.875 4 2v4a56 56 0 0 1-5.875 4.813l-1.779 1.324a256 256 0 0 1-13.323 9.195c-2.365 1.95-3.59 3.98-5.023 6.668 3.238 0 6.335-.884 9.492-1.562C173 67 173 67 177 67v-2c8.182-3.214 16.322-4.095 25-5-3.524 2.784-6.857 4.327-11 6l1 2-1.617.67A4428 4428 0 0 0 183 71.75l-2.543 1.055A215 215 0 0 0 165 80q-2 1.002-4 2l2.063-.035c8.684-.081 17.28.42 25.937 1.035v1c-8.624 1.369-17.108 2.303-25.82 2.754-2.576.2-4.704.614-7.18 1.246a85 85 0 0 1-4.75.063l-2.422-.028L147 88l-1-3c3.759-3.322 7.535-5.262 12.188-7l2.003-.775a832 832 0 0 1 3.975-1.524c2.454-.938 4.895-1.91 7.334-2.888.77-.309 1.542-.617 2.336-.934A409 409 0 0 0 183 68a208 208 0 0 0-24.437 9.5C143.67 84.323 143.67 84.323 137 84c1.543-4.1 4.153-5.883 7.625-8.437q1.764-1.318 3.523-2.641l1.89-1.42c3.466-2.653 6.835-5.424 10.212-8.19 5.525-4.515 11.08-8.98 16.75-13.312l-1.328.996-1.922 1.441-2.223 1.668a3650 3650 0 0 1-5.273 3.946c-5.4 4.037-10.78 8.096-16.129 12.199l-3.117 2.39a158 158 0 0 0-6.242 5.169C138 80 138 80 135.625 79.813L134 79c.604-2.988 1.519-5.066 3.25-7.566l1.344-1.971L140 67.438q1.38-2 2.75-4.004l1.234-1.78c1.19-1.796 1.19-1.796 2.016-4.654l-1.504 2.273a1853 1853 0 0 1-5.392 8.076 677 677 0 0 0-3.088 4.674l-1.828 2.727-1.645 2.484L131 79h-3c-.422-4.638.94-7.878 3-12l2-1 1.25-3.062c1.497-3.662 3.498-6.51 5.934-9.61a204 204 0 0 0 4.101-5.469l1.203-1.65q1.733-2.381 3.461-4.768C151 39 151 39 154 38l-.312-2.25C154 33 154 33 156.313 30.625L159 29l3 1 2.438-2.437z"/><path fill="#2c364b" d="M114.977 52.066C117.53 53.245 118.02 54.424 119 57h2l-1 2-1.437-2c-3.309-2.582-5.46-2.44-9.54-2.434-2.42.273-2.42.273-4.023 3.434l-2-1c1-3 1-3 2.5-4.812 3.477-1.652 5.803-.909 9.477-.122M102 58l1 3c-1 2-1 2-2.632 2.607-3.095.514-6.122.595-9.259.682q-2.044.081-4.09.168c-2.13.089-4.259.168-6.39.215-8.02.192-14.362.439-20.237 6.46C58.28 73.966 57.096 76.645 56 80h-2v22c-10.75 5-10.75 5-13 5v9h2v2l1.898.367 2.477.508 2.46.492C52 120 52 120 54 122c.272 1.884.272 1.884.303 4.203l.05 2.63.026 2.847.051 2.922c.054 3.09.094 6.182.133 9.273q.064 4.626.142 9.252.049 2.88.08 5.763l.041 2.649.03 2.323C55 166.016 55.41 167.928 56 170h2v2q2.656-.213 5.313-.437l2.988-.247c2.793-.234 2.793-.234 5.699-1.316a89 89 0 0 0 2-4c1.5-1.75 1.5-1.75 3-3h2l1-4 6-1v-2c8.213-.298 15.94-.21 24 1.5 10.89 2.275 21.931 1.773 33 1.5l.833-2.328c1.57-3.595 4.135-5.721 7.042-8.234 8.53-6.992 8.53-6.992 12.5-16.875-.525-3.586-2.268-5.636-4.375-8.563-2.908-4.342-4.523-7.643-4-13 4.302-.2 7.074.317 11 2l3.438.75c4.077.94 7.645 2.621 11.437 4.375 5.959 2.645 10.659 3.68 17.125 2.875l.836 1.922c1.554 2.773 3.207 3.144 6.164 4.078-3.384 1.128-3.735.928-6.812-.437-3.534-1.438-6.336-1.852-10.188-1.563l5 3-2 1a137 137 0 0 1-7.875-3.812l-2.184-1.12a813 813 0 0 1-4.05-2.09L175 120l-2.036-1.085c-2.593-1.208-5.144-1.53-7.964-1.915l1.563 2.875L168 123l-1 2 2 1c1.284 4.801 1.614 8.773-.625 13.25L166 142l-2.437 3.063C156.092 153.627 148.91 160.528 138 164v-1l-3.184.035c-19.445.15-19.445.15-23.816-2.035-1.87-.228-3.747-.41-5.625-.562l-3.04-.254L100 160v-2c-9.298.845-18.233 2.332-24.55 9.844A376 376 0 0 0 72 173c-2.982 2.432-4.663 2.958-8.5 3.438-4.128-.516-5.701-1.392-8.5-4.438-.812-2.75-.812-2.75-1-5h-2c-.92-4.655-1.122-9.147-1.062-13.875l.013-2.086q.02-2.52.049-5.039h-1c-.339-8.162.701-15.95 2-24l-1.848.54c-3.044.651-4.425-.077-7.152-1.54-3.875-3.244-6.174-5.943-7-11 1.28-3.329 2.482-5.482 5-8 2.383-.414 2.383-.414 5.125-.625l2.758-.227L51 101l.06-2.016c.096-3.037.205-6.073.315-9.109.03-1.047.062-2.093.094-3.172.199-5.237.448-9.808 2.531-14.703h2l1-4h2l1-4 3.063-.375c3.835-.492 3.835-.492 6.957-1.668 6.04-1.773 12.487-.999 18.707-.791 7.138.231 7.138.231 13.273-3.166"/><path fill="#4987a8" d="m88 71 1 3-1.68.028c-2.525.054-5.047.138-7.57.222l-2.645.043c-5.26.149-5.26.149-9.714 2.754-.46.644-.918 1.289-1.391 1.953l1 1 2-3c3.418-1.14 6.035-1.113 9.637-1.098l3.935.01 4.115.025 4.15.014Q95.92 75.97 101 76c2.607 5.215 1.384 11.11-.34 16.441C99.2 96.664 97.623 100.837 96 105h-2v3l-4 1-7-15c-5.002.408-5.002.408-6.766 3.469L74.75 100.5C72 106 72 106 71 107c-1.666.04-3.334.043-5 0v-2h-6a985 985 0 0 1-.25-12.625l-.102-3.605C59.525 77.75 59.525 77.75 64 73c7.019-5.014 15.941-3.194 24-2"/><path fill="#57a4c4" d="M109 58c2.963-.423 5.116-.63 7.629 1.16 3.066 3.005 5.179 6.153 7.371 9.84l2.188 1.313C128 72 128 72 128.5 75.937c-.154 3.09-.426 3.961-2.312 6.563C124 84 124 84 121 84v9c-2.136-3.204-2.656-5.387-3.437-9.125-.874-3.993-1.811-7.839-3.188-11.687-1.044-2.927-1.626-5.596-1.937-8.688L112 60l-2-1-.312 2.938c-.537 3.872-1.729 7.383-3.067 11.046-.768 2.142-.768 2.142-.621 5.016l4-12h2v11h-2l-.332 2.309C108.666 85.837 107.274 91.799 105 98l-1-2h-3l-.48 1.95c-1.96 7.585-4.598 14.786-7.52 22.05-2.167-2.167-2.805-3.672-3.91-6.5l-1.06-2.687L86.936 108q-1.078-2.75-2.16-5.5l-.96-2.469c-.793-2.05-.793-2.05-1.817-4.031l-3-1-.75 2.5c-1.417 3.968-3.365 7.731-5.25 11.5H48v-1l8-1c1.032-3.095 1.14-5.306 1.176-8.55l.072-3.307a682 682 0 0 0 .094-6.875c.16-6.36.335-10.458 4.658-15.268 5.35-4.948 9.1-5.114 16.25-5.07q2.14-.014 4.281-.032a358 358 0 0 1 6.715.002c8.358.522 8.358.522 15.645-2.516 1.302-2.1 1.302-2.1 2.109-5.384h2zM63 74c-2.823 3.81-3.362 6.474-3.293 11.176l.03 3.506.075 3.63.042 3.69q.053 4.5.146 8.998h6v2c2.366.355 2.366.355 5 0 1.838-1.81 1.838-1.81 3.188-4.25l1.48-2.39A113 113 0 0 0 79 94c2.293.059 2.293.059 5 1 1.375 2.413 2.36 4.493 3.313 7.063l.798 2.01c.648 1.635 1.27 3.28 1.889 4.927l4-1v-3h2c5.515-13.078 5.515-13.078 6-27l-1-2q-6.085-.074-12.17-.11a782 782 0 0 1-4.138-.04 818 818 0 0 0-5.958-.045l-3.618-.032c-3.027.22-4.642.521-7.116 2.227l-2 3c1.75-4.875 1.75-4.875 4-6a76 76 0 0 1 4.352-.316l2.578-.127 2.695-.12 2.719-.13Q85.67 74.147 89 74l-1-3c-13.196-2.1-13.196-2.1-25 3"/><path fill="#25404e" d="M105 112h2c3.514 7.614 2.82 16.243 0 24h-2l-.812 1.938C103 140 103 140 100 141v2l-1.864.012c-2.796.033-5.59.104-8.386.175-1.452.01-1.452.01-2.934.018-5.75.046-5.75.046-10.3 3.22L75 149c-3 2-3 2-5.687 1.625L67 150q-.185-6.54-.275-13.08-.037-2.224-.102-4.45c-.06-2.132-.09-4.263-.111-6.396l-.08-3.888C67 119 67 119 69.37 117.132L72 116l2.563-1.187C77 114 77 114 81 114c3 4.071 3 4.071 3 7h2l.7 2.152.987 2.785.95 2.778c1.167 2.527 1.167 2.527 3.883 3.101 2.398.209 2.398.209 4.48.184v-4h2v-3h2l.367-1.828.508-2.422.492-2.39c.625-2.328 1.481-4.25 2.633-6.36"/><path fill="#344e69" d="M107 54h9l2 4c2.295 1.407 4.434 2.145 7 3v6l6 2-1 5c-2 0-2 0-4.25-2-2.763-2.861-5.087-6.014-7.418-9.23-2.113-2.807-2.912-3.686-6.457-4.395L109 58v2h-2l-.875 2.313C105 65 105 65 103 68c-3.053.385-3.053.385-6.95.406l-2.093.033c-2.215.034-4.43.05-6.644.061-2.9.015-5.8.049-8.7.094l-3.913.021c-5.374.559-9.312 1.887-13.075 5.948-1.613 2.31-1.613 2.31-2.625 4.437h-2l.035 2.238c.167 18.759.167 18.759-2.535 23.262-3.624 2.174-7.447 3.357-11.5 4.5l-1 6 11 3v2h2c.914 2.741 1.133 4.398 1.158 7.224l.03 2.57.023 2.765.086 5.795q.063 4.568.104 9.137c.028 2.94.074 5.878.122 8.818l.01 2.759c.079 4.962.079 4.962 1.87 9.513 1.506 1.582 1.506 1.582 3.64 1.81l2.145-.141L68 170l1-4 1.875-.187L73 165a125 125 0 0 0 2-5l3-1c1.092-1.933 1.092-1.933 2-4 3-3 6.579-2.85 10.625-3.312l2.371-.338c5.025-.588 8.277-.112 12.891 1.882 4.096 1.489 8.42 1.629 12.738 1.956l2.913.243c7.501.59 14.938.8 22.462.569l-1 3c-10.516 3.505-24.188 1.326-34.858-.856-7.338-1.48-14.675-1.853-22.142-2.144v2l-6 1-.125 1.688c-1.102 2.913-2.91 4.218-5.344 6.078-1.7 1.28-1.7 1.28-3.344 3.484-3.318 2.655-7.01 2.79-11.187 2.75l-2-1v-2h-2c-1.681-2.95-2.26-5.109-2.319-8.493l-.06-2.669-.035-2.854-.059-2.942c-.06-3.097-.106-6.195-.152-9.292q-.057-3.153-.117-6.305Q53.116 129.723 53 122l-10-4v-2h-2v-9c4.615-2.425 7.821-3.964 13-5V80h2l.438-3C58.13 71.399 62.06 67.92 67 65c5.263-1.224 10.44-1.393 15.813-1.5q2.128-.084 4.255-.18c4.978-.209 9.95-.32 14.932-.32l1-5h2z"/><path fill="#21375b" d="M194 85v1l8 1v1c-3.624.511-7.249 1.007-10.875 1.5l-3.07.434c-6.397.86-12.602 1.26-19.055 1.066v2l1.977.379c3.816.784 7.605 1.667 11.398 2.558l2.21.514c4.514 1.06 8.968 2.24 13.415 3.549v2l2.992.367 3.883.508 3.867.492C212 104 212 104 214 106l-8 1v2q-2.844-.214-5.687-.437l-3.2-.247C194 108 194 108 191.5 107.47c-2.981-.56-5.782-.565-8.812-.531l-3.239.027L177 107l-1 2 4 1v2l2.688.313c3.435.713 5.569 1.508 8.312 3.687v4c-15.309-4.834-15.309-4.834-21-11-3.166-1.793-3.166-1.793-6-3v-2l-2.437.313c-4.959-.435-8.395-2.72-12.563-5.313v-1h14l-1.712-.26q-3.833-.585-7.663-1.177l-2.695-.409-2.578-.4-2.38-.365C144 95 144 95 142 94v-3c2.62-1.31 4.909-1.39 7.828-1.684l3.595-.37 3.827-.383c11.524-1.184 11.524-1.184 23-2.75 4.658-.714 9.042-1.001 13.75-.813"/><path fill="#86bde1" d="M117 99h6l2 5v-4c4.463.51 6.698 2.002 10 5 1.908 2.84 3.567 5.759 5.254 8.734L142 116h4v7h-2l.125 3.313c0 8.055-2.079 15.94-4.125 23.687h-2l-4-19-2 1 .063-3.687c.005-3.233-.275-6.162-1.063-9.313l5 1c-3.16-1.873-5.338-2.45-9-2-2.632 1.809-2.632 1.809-5.062 4.25l-2.536 2.39A1000 1000 0 0 0 113 131v-24l3-1z"/><path fill="#524028" d="m202 61-11 5 1 2-1.617.67A4428 4428 0 0 0 183 71.75l-2.543 1.055A215 215 0 0 0 165 80q-2 1.002-4 2l2.063-.035c8.684-.081 17.28.42 25.937 1.035v1c-8.624 1.369-17.108 2.303-25.82 2.754-2.576.2-4.704.614-7.18 1.246a85 85 0 0 1-4.75.063l-2.422-.028L147 88l-1-3c3.759-3.322 7.535-5.262 12.188-7l2.003-.775a832 832 0 0 1 3.975-1.524c2.454-.938 4.895-1.91 7.334-2.888l2.336-.934A409 409 0 0 0 183 68a208 208 0 0 0-24.437 9.5C143.67 84.323 143.67 84.323 137 84c1.539-4.353 4.916-6.505 8.5-9.125 4.422-3.232 4.422-3.232 8.5-6.875a70 70 0 0 1 4.625-1.625c.817-.26 1.635-.52 2.477-.79L163 65l-2 4c3.238 0 6.335-.884 9.492-1.562C173 67 173 67 177 67v-2c17.464-6.512 17.464-6.512 25-4"/><path fill="#e7e485" d="m176 49 2 1a516 516 0 0 1-24.275 19.684c-3.172 2.42-6.327 4.864-9.475 7.316l-1.845 1.422C139.23 80.799 139.23 80.799 137 84c12.147-3.373 23.619-8.203 35.078-13.395 1.067-.467 2.135-.935 3.234-1.418l2.989-1.332c2.807-.89 3.998-.9 6.699.145-7.76 3.769-15.544 7.34-23.625 10.375l-2.006.758C155.941 80.396 152.607 81.406 149 82l-1 3h-2l1 2q2.125.04 4.25.063l2.39.035c2.29-.01 2.29-.01 4.166-.573 2.562-.613 5.031-.826 7.659-1.025l3.174-.25 3.298-.25q3.233-.246 6.465-.5l2.89-.219c2.62-.272 5.129-.756 7.708-1.281a127 127 0 0 1 5.813-.062l2.957.027L200 83v1q-7.905 1.167-15.812 2.313c-.79.114-1.578.23-2.39.348-11.645 1.69-23.277 3.177-35.004 4.174-7.096.685-13.213 2.43-19.794 5.165-4-4.625-4-4.625-4-8l2-1 .813-3.375C127 80 127 80 129.367 78.585c3.08-1.854 4.14-3.504 5.946-6.585 3.584-5.913 7.56-11.457 11.687-17l1 2-1.193 1.697a2143 2143 0 0 0-5.307 7.615l-1.879 2.67-1.777 2.569-1.65 2.364c-1.442 2.119-1.442 2.119-1.194 5.085 4.24-.534 6.998-3.135 10.188-5.75q1.863-1.498 3.73-2.992l1.994-1.6c4.353-3.456 8.796-6.796 13.225-10.153A290 290 0 0 0 176 49"/><path fill="#35458a" d="m79 95 4 1c1.598 2.879 1.598 2.879 3.063 6.563l.775 1.916c.738 1.834 1.45 3.677 2.162 5.521l1.05 2.707A318 318 0 0 1 92 118c2.215-2.215 2.724-3.637 3.727-6.57l.937-2.715.961-2.84.984-2.863Q99.813 99.508 101 96h3c-.603 5.842-1.71 11.291-3.312 16.938l-.667 2.382C98.447 120.795 96.553 125.895 94 131c-3-1-3-1-4.5-3.5-1.421-3.316-2.573-6.612-3.672-10.043-1.424-4.224-3.133-8.335-4.828-12.457-1.691 2.175-3.037 4.084-4.163 6.614C75 114 75 114 71.814 114.568l-3.888-.08-2.072-.021a400 400 0 0 1-6.541-.154q-2.22-.038-4.44-.069A827 827 0 0 1 44 114v-4l28-1z"/><path fill="#2c2468" d="M60 118h5l1 41 4-4h2l1-3c2.556-3.18 5.293-5.65 9.355-6.483 2.552-.106 5.033-.043 7.582.108l2.65.082c2.14.07 4.277.178 6.413.293l-2 5-2.902-.379c-5.716-.381-10.684-.391-15.46 3.11-3.218 2.958-6.17 6.076-9.052 9.36l-2.04 2.323-1.785 2.155L64 169l-4-1z"/><path fill="#2c5466" d="M105 112h2c3.514 7.614 2.82 16.243 0 24h-2l-.812 1.938C103 140 103 140 100 141v2l-1.864.012c-2.796.033-5.59.104-8.386.175-1.452.01-1.452.01-2.934.018-5.75.046-5.75.046-10.3 3.22L75 149c-3 2-3 2-5.687 1.625L67 150q-.185-6.54-.275-13.08-.037-2.224-.102-4.45c-.06-2.132-.09-4.263-.111-6.396l-.08-3.888C67 119 67 119 69.37 117.132L72 116l2.563-1.187C77 114 77 114 81 114c3 4.071 3 4.071 3 7h2l.7 2.152.987 2.785.95 2.778c1.167 2.527 1.167 2.527 3.883 3.101 2.398.209 2.398.209 4.48.184v-4h2v-3h2l.367-1.828.508-2.422.492-2.39c.625-2.328 1.481-4.25 2.633-6.36m-34 6c-.926 3.139-1.117 5.937-1.098 9.203l.01 2.969.025 3.078.014 3.125q.018 3.813.049 7.625l3.332-.453c3.287-.414 6.561-.694 9.867-.906l2.725-.196q2.78-.196 5.562-.343c4.52-.352 6.917-.66 10.639-3.41 1.901-2.73 2.462-3.763 2.188-7.005L104 128l-1.937 2.438c-3.498 2.926-5.525 3.51-9.977 3.753C90 134 90 134 87.563 132.5c-1.911-3.057-2.606-6.031-3.563-9.5-1.654-3.442-1.654-3.442-4-6-3.216-.563-5.894.08-9 1"/><path fill="#213744" d="M114.977 52.066C117.53 53.245 118.02 54.424 119 57h2l-1 2-1.437-2c-3.309-2.582-5.46-2.44-9.54-2.434-2.42.273-2.42.273-4.023 3.434l-2-1c1-3 1-3 2.5-4.812 3.477-1.652 5.803-.909 9.477-.122M102 58l1 3c-1 2-1 2-2.632 2.607-3.095.514-6.122.595-9.259.682q-2.044.081-4.09.168c-2.13.089-4.259.168-6.39.215-8.02.192-14.362.439-20.237 6.46C58.28 73.966 57.096 76.645 56 80h-2v22c-10.75 5-10.75 5-13 5v9h2v2l1.898.367 2.477.508 2.46.492C52 120 52 120 54 122c.227 2.706.227 2.706.195 6.102l-.02 3.671-.05 3.852-.027 3.875q-.036 4.75-.098 9.5h-1l-1-27-4 1c-4.485-1.15-7.051-3.493-10-7-1.5-2.937-1.5-2.937-2-6 1.28-3.329 2.482-5.482 5-8 2.383-.414 2.383-.414 5.125-.625l2.758-.227L51 101l.06-2.016c.096-3.037.205-6.073.315-9.109.03-1.047.062-2.093.094-3.172.199-5.237.448-9.808 2.531-14.703h2l1-4h2l1-4 3.063-.375c3.835-.492 3.835-.492 6.957-1.668 6.04-1.773 12.487-.999 18.707-.791 7.138.231 7.138.231 13.273-3.166"/><path fill="#212b37" d="m79.598 79.867 2.677-.004 2.787.012 2.8-.012 2.673.004 2.45.004C95 80 95 80 97 81c.455 6.675-1.233 12.594-3 19-2.418-.34-2.418-.34-5-1-1.312-2.562-1.312-2.562-2-5h-2l-1-2a109 109 0 0 0-7-1l-.687 1.875C74.62 95.615 73.008 96.05 70 97c-1.803-1.803-1.215-4.444-1.25-6.875l-.078-3.242C69 84 69 84 70.328 82.18c3.014-2.127 5.703-2.308 9.27-2.313"/><path fill="#473263" d="M155 110c4.302-.2 7.074.317 11 2l3.438.75c4.077.94 7.645 2.621 11.437 4.375 5.959 2.645 10.659 3.68 17.125 2.875l.836 1.922c1.554 2.773 3.207 3.144 6.164 4.078-3.384 1.128-3.735.928-6.812-.437-3.534-1.438-6.336-1.852-10.188-1.563l5 3-2 1a120 120 0 0 1-7.375-3.562l-2.165-1.108A1583 1583 0 0 1 175 120a1326 1326 0 0 0-6.75-3.437l-2.797-1.434c-2.168-.998-4.123-1.655-6.453-2.129q1.151 2.128 2.313 4.25l1.3 2.39c1.314 2.38 1.314 2.38 3.032 4.348 2.46 3.653 1.863 7.779 1.355 12.012-1.682 4.037-3.194 5.158-7 7a89 89 0 0 0-2 4c-2 2.25-2 2.25-4 4h-2l-1 3c-3 2-3 2-5.187 1.625L144 155l2.188-1.687c2.798-2.301 5.281-4.722 7.812-7.313.594-.56 1.189-1.121 1.8-1.7 4.182-3.99 6.675-6.888 7.575-12.738-.525-3.585-2.268-5.635-4.375-8.562-2.908-4.342-4.523-7.643-4-13"/><path fill="#283832" d="M200.297 62.883 202 64l-2 1-1 3c-2.73 1.5-2.73 1.5-6.187 3-3.404 1.494-6.774 2.98-10.094 4.652C180 77 180 77 177.688 77.562L176 78l-1 2c.984-.095 1.967-.19 2.98-.29 11.86-.996 23.224-.13 35.02 1.29-1.926 2.44-3.8 4.8-6 7a88 88 0 0 1-7.625-.375l-2.14-.172c-1.746-.141-3.49-.296-5.235-.453l2-1v-2q-5.969-.254-11.937-.5l-3.385-.145c-6.233-.255-12.44-.408-18.678-.355 3.166-6.333 15.589-9.082 21.938-11.687l2.36-.971L190 68l-1-2a198 198 0 0 1 4.25-2.125l2.39-1.195c2.36-.68 2.36-.68 4.657.203"/><path fill="#b6b8de" d="m125 82 2 1-1 5h-3c1.688 4.23 1.688 4.23 5 7 2.333-.775 2.333-.775 4.875-1.937C136.378 91.52 138.063 91 142 91v3c.579.08 1.157.16 1.753.244 21.229 2.96 21.229 2.96 30.247 4.756v1c-11.976-.846-11.976-.846-16.75-1.562-4.102-.553-8.118-.522-12.25-.438v2l23 10c-3.673 1.224-4.432.657-7.887-.871l-2.842-1.24-2.958-1.326-2.995-1.315A1162 1162 0 0 1 144 102l1.063 1.875L146 106l-1 2-15-10 3 4-1 2-1.812-1.437c-2.192-1.728-2.192-1.728-5.188-2.563l1 8c-4.676-7.014-5.412-15.76-5-24 1.875-1.062 1.875-1.062 4-2"/><path fill="#2f5e72" d="m85.563 77.813 3.193-.038 3.06-.005 2.796-.013C97 78 97 78 100 80c1.35 8.944-.285 16.873-4 25h-2v3l-4 1-7-15c-5.771 1.154-6.236 2.072-9.375 6.504C72 102 72 102 69.313 102.214L67 102a803 803 0 0 1-.187-9.812l-.077-2.815-.029-2.705-.048-2.491C67.087 81.443 67.787 80.624 70 79c4.894-1.786 10.43-1.184 15.563-1.187M70 82c-1.382 2.765-1.095 5.046-1.062 8.125l.027 3.32L69 96c4.225 0 5.045-.256 8-3v-2c2.343.256 4.678.593 7 1l1 2h2l.688 2.438L89 99c2.536.7 2.536.7 5 1 2.611-9.366 2.611-9.366 3-19-3.61-1.805-7.838-1.185-11.812-1.187l-2.737-.038C75.98 79.72 75.98 79.72 70 82"/><path fill="#3e5d44" d="M194 85v1l8 1v1c-13.752 2.074-27.087 3.469-41 3v2h-7l6 1v2l2.09-.105c5.616-.162 9.943.226 15.164 2.238 6.381 2.015 13.152 2.8 19.746 3.867v1c-19.922.719-19.922.719-27-4a86 86 0 0 0-5.91-1.035l-3.498-.514-3.655-.513a2865 2865 0 0 1-7.16-1.036l-3.21-.453C144 95 144 95 142 94v-3c2.62-1.31 4.909-1.39 7.828-1.684l3.595-.37 3.827-.383c11.524-1.184 11.524-1.184 23-2.75 4.658-.714 9.042-1.001 13.75-.813"/><path fill="#6e8ec2" d="M80 103c3.028 3.46 4.986 7.522 6 12-.422 2.25-.422 2.25-1 4l-1.812-3L81 113h-3l-1.25 1.313C75 116 75 116 68 119v31l4 2c-3.625 5.75-3.625 5.75-7 8v-42l-5 1-1 45h-1l-1-46-8-2v-1c8.661-1.26 17.27-1.09 26-1l.898-2.293c1.217-2.989 2.633-5.836 4.102-8.707"/><path fill="#3c66cf" d="M117 99h6c.676 1.892 1.34 3.79 2 5.688l1.125 3.199c1.408 5.011 1.408 5.011.875 8.113-2.047 2.754-2.047 2.754-4.75 5.563l-2.672 2.816A1129 1129 0 0 1 113 131v-24l3-1z"/><path fill="#382029" d="M161.813 29.25 164 30c-2.378 4.845-2.378 4.845-4 7-2.75.938-2.75.938-5 1l-1 5-3 1-.25 3.375L150 51c-1.875 1.063-1.875 1.063-4 2-1.767 3.033-1.767 3.033-3 6h-2l.2 2.684c-.232 3.843-1.115 5.322-3.387 8.379-.635.854-1.269 1.709-1.922 2.59-2.153 2.672-4.354 5.04-6.891 7.347-1-1-1-1-1.25-3.125.325-3.738 1.58-6.535 3.25-9.875l2-1 1.25-3.062c1.497-3.662 3.498-6.51 5.934-9.61a204 204 0 0 0 4.101-5.469l1.203-1.65q1.733-2.381 3.461-4.768C151 39 151 39 154 38l-.312-2.25c.312-2.75.312-2.75 2.5-5.125C159 29 159 29 161.813 29.25"/><path fill="#364f68" d="M105.402 153.232c4.38 1.295 8.81 1.606 13.348 1.956l2.885.243c7.47.592 14.872.8 22.365.569l-1 3c-10.516 3.505-24.188 1.326-34.858-.856-7.338-1.48-14.675-1.853-22.142-2.144v2l-6 1-.258 1.8c-.954 2.829-2.207 3.67-4.617 5.388l-2.117 1.542C71 169 71 169 68 170l1-4 1.875-.187L73 165a125 125 0 0 0 2-5l3-1c1.092-1.933 1.092-1.933 2-4 2.79-2.79 5.744-2.819 9.5-3.312l2.031-.338c5.174-.691 8.958.241 13.871 1.882"/><path fill="#307045" d="m194 64-3 2 1 2-1.617.67A4428 4428 0 0 0 183 71.75l-2.543 1.055A215 215 0 0 0 165 80q-2 1.002-4 2l2.063-.035c8.684-.081 17.28.42 25.937 1.035v1c-8.624 1.369-17.108 2.303-25.82 2.754-2.576.2-4.704.614-7.18 1.246a85 85 0 0 1-4.75.063l-2.422-.028L147 88l-1-3c3.76-3.322 7.535-5.261 12.188-7l2.006-.777c1.932-.748 3.869-1.486 5.806-2.223 10.77-3.73 10.77-3.73 20-10 5.581-2.21 5.581-2.21 8-1"/><path fill="#839ce0" d="M111 112h2l1 18 8-9v3l-2 2 1 1c.232 1.515.412 3.038.563 4.563l.253 2.503L122 136l6-2c-1.375 1.5-1.375 1.5-3 3h-2v2h2l.813 1.938c1.074 2.393 1.074 2.393 4.187 3.062v-4h2l1-2c3.385 4.615 4.09 9.48 5 15-7-4.21-13.381-8.77-19.59-14.082-2.096-1.668-3.97-2.848-6.41-3.918l-1.39 2.266-1.86 2.984-1.828 2.953c-1.783 2.594-3.623 4.66-5.922 6.797 1.993-5.617 4.754-11.754 9-16 .37-2.325.37-2.325.414-5.008l.117-2.988.094-3.129.117-3.152q.142-3.86.258-7.723"/><path fill="#7b82de" d="M130.625 116.75c3.278 1.214 6.326 2.54 9.375 4.25-3 1-3 1-6.187-.437L131 119l1 2.125c1.09 3.135 1.153 5.58 1 8.875l2 1-1 8-4 1v4l-4-1-1-4h-2c0-2 0-2 1-3h-2c-1.478-2.957-1.06-5.742-1-9l-2-1c6.686-8.91 6.686-8.91 11.625-9.25"/><path fill="#5783ac" d="m108 101 2 1q.112 6.216.165 12.433.022 2.11.061 4.222c.037 2.033.054 4.065.067 6.099l.048 3.697c-.534 5.561-2.814 11.204-6.561 15.433-4.112 2.579-9.428 1.704-14.093 1.491l-3.4-.082Q82.142 145.186 78 145l1-2h21v-2a62 62 0 0 1 3.438-2.75c2.91-2.452 2.91-2.452 4.5-5.875L108 129l.074-2.871c.078-4.87.027-9.366-1.074-14.129-2.3.871-2.3.871-3.07 3.723l-1.055 3.34-1.07 3.347L101 125h-2v3h-2v4l-6 1c-3.338-3.641-3.979-7.286-5-12h-2c-3-4.385-3-4.385-3-7l-4-1c1.688-.812 1.688-.812 4-1 2.625 2.313 2.625 2.313 5 5l2 2a67 67 0 0 1 1.563 4.5c.712 2.275 1.37 4.367 2.437 6.5h2l2-6h2l.487-1.788c.74-2.68 1.5-5.352 2.263-8.025l.766-2.814.78-2.705.7-2.491c1.207-2.616 2.604-3.645 5.004-5.177"/><path fill="#354465" d="M107 54h9l2 4c2.295 1.407 4.434 2.145 7 3v6l6 2-1 5c-2 0-2 0-4.25-2-2.763-2.861-5.087-6.014-7.418-9.23-2.113-2.807-2.912-3.686-6.457-4.395L109 58v2h-2l-.937 2.375C105 65 105 65 104 67H66l1-2c2.896-.41 2.896-.41 6.738-.633l2.052-.126c2.174-.13 4.348-.248 6.522-.366l4.366-.262C97.024 63 97.024 63 102 63l1-5h2z"/><path fill="#8c5baf" d="M145 97h9l-4 2c4.642 2.533 8.652 4.465 14 5v2l2.688.75c3.444 1.3 5.642 2.737 8.312 5.25v2l2.137.34c3.137.723 5.764 1.855 8.676 3.222l2.957 1.38L191 120c-4.244 1.415-6.798-.493-10.625-2.312-5.765-2.637-11.104-4.632-17.375-5.688a279 279 0 0 1-4.562-1.125L155 110l.438 1.863.562 2.45.563 2.425C157 119 157 119 157 122a528 528 0 0 1-4.437-5.625l-1.276-1.582c-2.747-3.56-3.917-6.316-4.287-10.793 6.803.9 12.646 3.471 19 6l-21-9z"/><path fill="#7ac9d4" d="m110 59 3 1 .586 3.254.789 4.309.383 2.134c.834 4.526 1.949 8.881 3.242 13.303.398 1.808.776 3.62 1.125 5.438l.508 2.62L120 93h2v3l-3-1-1-3c-2.015-.733-2.015-.733-4-1l-2 7h-1l-1-10-2 4c-1.24-3.718-.57-5.439.438-9.187l.87-3.293L110 77h2V66h-2l-.586 2.45-.789 3.237-.773 3.2c-.771 2.817-1.707 5.43-2.852 8.113-2.397-7.191 2.566-17.047 5-24"/><path fill="#1f2932" d="m80 120 .813 3.438L82 127l3 1c.8 1.996.8 1.996 1.313 4.438l.55 2.433L87 137c-2.312 2.312-2.932 2.273-6.062 2.5L77 140l-1 2-4-1a575 575 0 0 1-.25-8.812l-.102-2.526c-.098-6.133-.098-6.133 2.118-8.736C76 120 76 120 80 120"/><path fill="#8796e8" d="M131 119a5173 5173 0 0 1 6.64 1.465c2.129.483 4.245.997 6.36 1.535.318 9.707-1.53 18.65-4 28h-2l-4-19-2 1 .063-3.687c.005-3.233-.275-6.162-1.063-9.313"/><path fill="#50639b" d="M57 79h1c.116 4.083.187 8.166.25 12.25l.102 3.512.039 3.379.063 3.11C58 104 58 104 54 108l18 1v1H44v4h14l-4 2 1.473 1.198c1.975 2.331 1.92 3.611 1.96 6.64l.06 2.973.019 3.2.054 3.284c.054 3.464.088 6.928.121 10.393q.05 3.52.104 7.04.126 8.637.209 17.272c-2.438-2.438-2.264-3.103-2.319-6.45l-.06-2.79-.035-3.018-.059-3.085c-.06-3.26-.106-6.521-.152-9.782l-.117-6.621A4504 4504 0 0 1 55 120h-2v-2l-3.25-.375c-3.129-.521-5.085-1.026-7.75-2.625v-6l2.59-1.023 3.347-1.352c1.103-.44 2.205-.882 3.34-1.336 2.835-1 2.835-1 3.723-3.289.22-1.737.391-3.481.535-5.227l.264-3.125.264-3.273.275-3.297Q56.674 83.04 57 79"/><path fill="#daac7a" d="m176 49 2 1a516 516 0 0 1-24.275 19.684c-3.172 2.42-6.327 4.864-9.475 7.316l-1.845 1.422C139.23 80.799 139.23 80.799 137 84l4 1h-11l-2 2h-3c.688-3.312.688-3.312 2-7l2.375-1.418c3.074-1.853 4.135-3.505 5.938-6.582 3.584-5.913 7.56-11.457 11.687-17l1 2-1.193 1.697a2143 2143 0 0 0-5.307 7.615l-1.879 2.67-1.777 2.569-1.65 2.364c-1.442 2.119-1.442 2.119-1.194 5.085 4.24-.534 6.998-3.135 10.188-5.75q1.863-1.498 3.73-2.992l1.994-1.6c4.353-3.456 8.796-6.796 13.225-10.153A290 290 0 0 0 176 49"/><path fill="#6cb4d9" d="M70 69h34l-1 6-1.937.06c-2.959.097-5.917.206-8.876.315-1.004.03-2.01.062-3.044.094C78.93 75.819 78.93 75.819 69 78c-2.192 3.287-2.287 4.485-2.414 8.324l-.117 3.115-.094 3.249-.117 3.283Q66.116 99.985 66 104h-1a738 738 0 0 1-.312-12.187l-.127-3.487c-.122-8.385-.122-8.385 2.376-12.576 4.175-2.386 7.638-2.529 12.376-2.562l2.533-.077A359 359 0 0 1 88 73v-2l-18-1z"/><path fill="#6c8acf" d="m112 59 3 1v3h2c1.402 1.828 1.402 1.828 2.938 4.25 1.52 2.381 3.017 4.692 4.753 6.922C126 76 126 76 126 78h2c-1.152 2.468-2.048 4.048-4 6h-3v9c-2.136-3.204-2.656-5.387-3.437-9.125-.87-3.977-1.802-7.797-3.188-11.625-1.56-4.4-2.006-8.605-2.375-13.25"/><path fill="#51a8d5" d="M149.125 126.688c3.674 1.677 7.28 3.474 10.875 5.312 0 3 0 3-2.23 5.262l-2.958 2.425-2.917 2.45C149 144 149 144 144 144l1-17c2-1 2-1 4.125-.312"/><path fill="#333224" d="m175 55 1 2-2.437 2.313c-2.731 2.481-2.731 2.481-3.563 5.687 4.115-1.13 8.048-2.398 12-4l2.125-.5c2.187-.475 2.187-.475 4.875-2.5h3l3-2 2 2c3.787 0 7.265-.425 11-1v2c-5.328 2.001-10.555 2.648-16.166 3.21-3.955.437-7.179 1.27-10.834 2.79h-4v2c-5.824 2.265-11.856 3.065-18 4 3.378-5.607 6.174-9.707 12-13a242 242 0 0 0 4-3"/><path fill="#2e2a40" d="M159 113c3.344.557 6.033 1.352 9 3l-3 1 1.563 2.875L168 123l-1 2 2 1c1.284 4.801 1.614 8.773-.625 13.25L166 142l-2.437 3.063c-3.658 4.193-7.577 8.006-11.688 11.75l-2.008 1.832C148 160 148 160 145 160v-2a165 165 0 0 1 4.348-3.645c3.252-2.667 6.067-5.606 8.652-8.917 2-2.438 2-2.438 4.688-4.563 2.687-2.18 3.114-3.648 3.656-7.004.442-6.894-1.51-10.424-5.813-15.742C159 116 159 116 159 113m-14 48c-2.375 1.563-2.375 1.563-5 3l-2-1v-2c4.75-1.125 4.75-1.125 7 0"/><path fill="#462b60" d="M160 102c8.617-.307 15.935-.396 24 3v1l-3.437.375L177 107l-1 2 4 1v2l2.688.313c3.435.713 5.569 1.508 8.312 3.687v4c-15.309-4.834-15.309-4.834-21-11-3.166-1.793-3.166-1.793-6-3v-2h-4z"/><path fill="#6976d3" d="M112 134c3.571 1.88 5.547 3.17 7 7l-2 1v8c-5.037 1.511-9.882.646-15 0 3.06-5.532 6.445-10.774 10-16"/><path fill="#453760" d="m155 114 2 1v3l1.797.316c3.988 1.238 6.213 4.11 8.203 7.684.91 4.685.582 8.603-1.25 13-1.832 2.094-3.285 2.807-5.75 4a89 89 0 0 0-2 4c-2 2.25-2 2.25-4 4h-2l-1 3c-3 2-3 2-5.187 1.625L144 155l2.188-1.687c2.798-2.301 5.281-4.722 7.812-7.313.594-.56 1.189-1.121 1.8-1.7 4.182-3.99 6.675-6.888 7.575-12.738-.525-3.585-2.268-5.635-4.375-8.562-4-6.46-4-6.46-4-9"/><path fill="#283e50" d="M75 80q4.938-.041 9.875-.062l2.84-.026 2.715-.01 2.507-.016C95 80 95 80 97 81c.455 6.675-1.233 12.594-3 19-2.418-.34-2.418-.34-5-1-1.312-2.562-1.312-2.562-2-5h-2l-1-2a109 109 0 0 0-7-1l-.687 1.875C74.62 95.615 73.008 96.05 70 97c-1-1-1-1-1.133-3.652l.008-3.285-.008-3.278C69 84 69 84 70 82h2l-1 9 2.375-1.062C78.109 88.713 82.287 88.572 87 90c2.055 1.893 2.792 3.418 4 6 2.68-2.68 2.387-4.392 2.625-8.125L94 82l-19-1z"/><path fill="#606ea8" d="m56 117 4 2 1 49c4.307-1.077 5.29-1.954 8.25-5.062l2.14-2.223L73 159l2 3c-3.75 3.875-3.75 3.875-6 5l-1 3c-2.763 1.381-4.947 1.19-8 1-3.2-3.2-3.125-6.48-3.205-10.86l-.06-2.912-.051-3.119-.063-3.211q-.097-5.074-.184-10.148l-.13-6.883Q56.146 125.433 56 117"/><path fill="#200f56" d="M61 119h3l.06 3.916c.076 4.782.165 9.564.257 14.346q.059 3.108.105 6.216c.045 2.973.103 5.947.164 8.92l.035 2.82.06 2.608.04 2.301c.125 2.116.125 2.116 2.279 3.873h-3v5h-3z"/><path fill="#766f9c" d="M158 122c3 2 4.93 3.498 6 7-.464 8.515-4.4 12.623-10.16 18.426C152 149 152 149 150 149l-1 3c-1.629 1.387-1.629 1.387-3.562 2.688l-1.942 1.324L142 157l-2-1 2.816-2.344c6.552-5.502 12.886-10.884 18.184-17.656h-2l-.707 1.723c-3.884 6.84-11.855 11.939-18.293 16.277.267-3.19.72-6.053 2-9 3.625-1.625 3.625-1.625 5.77-2.191 3.493-1.267 5.798-3.67 8.468-6.188C158 135 158 135 161 133l-.656-1.898-.844-2.477-.844-2.46C158 124 158 124 158 122"/><path fill="#878533" d="m154 68 2 1-1.496 1.46-1.941 1.915-1.934 1.898C148.92 75.917 148.92 75.917 148 78l5.563-2.312 3.34-1.38c2.282-.964 4.495-1.98 6.722-3.058 4.423-1.638 8.691-1.977 13.375-2.25-2.58 1.72-4.643 2.722-7.5 3.813a185 185 0 0 0-10.937 4.687C143.67 84.323 143.67 84.323 137 84c1.539-4.353 4.916-6.505 8.5-9.125 4.422-3.232 4.422-3.232 8.5-6.875"/><path fill="#24266d" d="M75 105h2l-2 9H44v-4l2.523-.028a973 973 0 0 0 9.275-.18c1.995-.042 3.99-.063 5.985-.085l3.799-.098 3.507-.063c3.03-.257 3.03-.257 4.687-2.584z"/><path fill="#84ce9a" d="m149 84-3 1 1 2q2.125.04 4.25.063l2.39.035c2.29-.01 2.29-.01 4.166-.573 2.562-.613 5.031-.826 7.659-1.025l3.174-.25 3.298-.25q3.233-.246 6.465-.5l2.89-.219c2.62-.272 5.129-.756 7.708-1.281a127 127 0 0 1 5.813-.062l2.957.027L200 83v1c-34.05 5.108-34.05 5.108-48.375 6.375l-2.781.255c-4.15.334-7.783.523-11.844-.63 1-3 1-3 2.996-4.203l2.441-1.047 2.434-1.078C147 83 147 83 149 84"/><path fill="#4e89ab" d="M80 103c3.028 3.46 4.986 7.522 6 12-.422 2.25-.422 2.25-1 4l-1.812-3L81 113h-3l-1.25 1.313C75 116 75 116 68 119v31l4 2-5 1c-1.495-2.99-1.163-6.064-1.168-9.344l-.01-2.196q-.007-2.3-.007-4.6c-.002-2.35-.02-4.7-.04-7.051l-.005-4.465-.022-2.137c.023-4.978.023-4.978 2.252-7.207l-10-1v-1h17l2-5c.985-2.008 1.982-4.01 3-6"/><path fill="#3a4e6c" d="m85.438 77.813 3.22-.038 3.088-.005 2.834-.013C97 78 97 78 100 80c2.007 8.682-1.708 15.681-6 23-1.922-.371-1.922-.371-4-1-1.25-2.062-1.25-2.062-2-4l6 2 .938-5.562.527-3.13A488 488 0 0 0 97 81c-3.583-.03-7.167-.047-10.75-.062l-3.078-.026-2.969-.01-2.73-.016C75.167 80.992 73.21 81.35 71 82l1-3c3.989-1.994 9.052-1.185 13.438-1.187"/><path fill="#5c538f" d="M109 58c2.963-.423 5.116-.63 7.629 1.16 3.066 3.005 5.179 6.153 7.371 9.84l2.188 1.438C128 72 128 72 128.25 75.188L128 78h-2c-1.656-2.012-1.656-2.012-3.5-4.687l-1.844-2.637c-1.553-2.51-2.658-4.906-3.656-7.676h-2l-1-3c-2.015-.733-2.015-.733-4-1l-.312 3.313C109 66 109 66 107.954 67.713c-3.086 2.033-6.334 1.654-9.903 1.58l-2.341-.013a853 853 0 0 1-7.397-.093q-2.51-.022-5.018-.04Q77.147 69.093 71 69v-1l2.874.02c3.527.006 7.051-.018 10.578-.063a278 278 0 0 1 4.574-.002c2.196.015 4.388-.014 6.583-.053l4-.016c3.357-.526 3.357-.526 4.738-2.504 1.276-2.143 1.276-2.143 2.653-5.382h2z"/><path fill="#2f6093" d="m148 91 6.25 1.563 3.266.816L160 94v2l2.09-.105c5.616-.162 9.943.226 15.164 2.238 6.381 2.015 13.152 2.8 19.746 3.867v1c-19.922.719-19.922.719-27-4a86 86 0 0 0-5.91-1.035l-3.498-.514-3.655-.513a2865 2865 0 0 1-7.16-1.036l-3.21-.453C144 95 144 95 142 94v-3c2.58-1.29 3.264-.797 6 0"/><path fill="#3e8cd3" d="M119 140c5.512 2.45 9.52 6.102 13 11v2l-20-1 4-2-.187-3.875c-.106-2.18-.106-2.18.187-4.125z"/><path fill="#4a668a" d="M102.484 152.36c7.177 2.39 14.65 2.716 22.141 3.327l4.488.393q5.442.475 10.887.92c-2.693 2.693-4.039 2.3-7.812 2.313-23.14-.29-23.14-.29-31.188-4.313a154 154 0 0 0-7.812-.25l-2.159-.062c-4.63-.035-7.225.752-11.029 3.312l-2-1c2.796-3.505 5.113-4.601 9.55-5.209l2.075-.228 2.004-.311c4.013-.49 7.022-.188 10.855 1.107"/><path fill="#63bbba" d="M110 66h2v11h-2l-.332 2.309C108.666 85.837 107.274 91.799 105 98l-1-2-3-1c2.698-9.782 5.72-19.4 9-29"/><path fill="#6299c6" d="M70 69v2l-5.273 2.734C62.557 75.324 61.997 76.5 61 79c-.365 2.901-.365 2.901-.414 6.078l-.117 3.516-.094 3.656-.117 3.703Q60.117 100.477 60 105h6v2h5v1H54l2-1c1.032-3.095 1.14-5.306 1.176-8.55l.072-3.307a682 682 0 0 0 .094-6.875c.16-6.36.334-10.458 4.658-15.268 4.316-4 4.316-4 8-4"/><path fill="#9795cd" d="m142 101 7 2-.75 1.563c-.549 5.352 4.375 10.307 7.375 14.437 2.847 3.987 4.437 7.208 5.375 12a2498 2498 0 0 1-4.312-2.375l-2.426-1.336c-1.797-1.024-3.541-2.142-5.262-3.289l1.313-3.062c1.042-3.708 1.042-3.708-.293-5.961A60 60 0 0 0 146 110l-2 1 .688-2.187c.396-3.569-.644-4.952-2.688-7.813"/><path fill="#67a6be" d="M128 146c1.341.757 2.673 1.531 4 2.313l2.25 1.3L136 151v3c-9.573 3.003-20.432 3.355-30 0l-3-2c4.083-.029 8.167-.047 12.25-.062l3.512-.026 3.379-.01 3.11-.016c2.425.1 4.436.415 6.749 1.114l-2-2.375C128 148 128 148 128 146"/><path fill="#713c44" d="m168 24 1 2a6689 6689 0 0 1-6.616 9.98q-1.124 1.693-2.246 3.389-1.621 2.448-3.247 4.893c-.65.979-1.3 1.958-1.968 2.967C151.659 51.933 148.098 56.007 144 60l-1.812 1.813L141 63v-4h2l2-7 4-1 1-7 4-1 1-5 1.738-.125c3.448-1.334 4.513-3.794 6.45-6.875l2.105-3.312L167 25z"/><path fill="#354b76" d="M149 98c8.644-.281 16.742.513 25.25 2l3.45.578q4.151.698 8.3 1.422l-1 2 9 2v1c-4.954-.3-9.54-.681-14.187-2.5-6.326-2.34-13.141-2.245-19.813-2.5v2c-4.043-1.222-7.493-2.628-11-5z"/><path fill="#312b7b" d="m62 75 2 1v29h-4c-.058-4.25-.094-8.5-.125-12.75l-.05-3.656-.02-3.516-.032-3.237c.225-2.82.769-4.449 2.227-6.841"/><path fill="#8d8c53" d="m194 64-3 2 1 2-1.697.703q-3.81 1.582-7.615 3.172l-2.67 1.105-2.569 1.075-2.364.984c-2.312 1-2.312 1-5.085 2.961-1.98.527-1.98.527-4.187.938-3.212.648-6.097 1.502-9.125 2.75-3.645 1.297-4.286 1.43-7.688.312l7.875-3.25 2.36-.974a728 728 0 0 1 12.327-4.963C179.366 69.84 179.366 69.84 186 65c5.581-2.21 5.581-2.21 8-1"/><path fill="#7d5e3f" d="m185 42 2 1v4a55 55 0 0 1-5.812 4.75l-1.776 1.313q-1.812 1.335-3.637 2.654a512 512 0 0 0-4.912 3.607C161.846 65.98 161.846 65.98 158 68l-2-1q2.715-2.285 5.438-4.562l1.637-1.374a263 263 0 0 1 12.378-9.689L177 50v-2c1.75-1.508 1.75-1.508 4-3.125l2.25-1.633z"/><path fill="#3e5097" d="M101 96h3c-.605 6.064-1.863 11.655-3.562 17.5l-.71 2.492Q98.873 118.998 98 122l-1-2-5 1z"/><path fill="#263e4e" d="M52 103a875 875 0 0 1-4.375 2l-2.46 1.125C43 107 43 107 41 107v9h2v2l1.898.367 2.477.508 2.46.492C52 120 52 120 54 122c.227 2.706.227 2.706.195 6.102l-.02 3.671-.05 3.852-.027 3.875q-.036 4.75-.098 9.5h-1l-1-27-4 1c-4.467-1.145-7.186-3.383-10-7-.51-3.638-.511-5.917 1.063-9.25 3.898-3.521 7.862-5.39 12.937-3.75"/><path fill="#607bd3" d="m115 106 1 2h2c1.157 8.14 1.84 14.954-3 22l-2 1v-24z"/><path fill="#396f85" d="M81 114c3 4.071 3 4.071 3 7h2l2 7h-2v-3h-2l-4-7q-2.188.212-4.375.438c-.812.08-1.624.162-2.46.246-2.208.207-2.208.207-4.165 1.316v29l6-3 2 1c-2.187 2.063-2.187 2.063-5 4-2.676-.379-2.676-.379-5-1q-.185-6.54-.275-13.08-.037-2.224-.102-4.45c-.06-2.132-.09-4.263-.111-6.396l-.08-3.888C67 119 67 119 69.37 117.132L72 116l2.563-1.187C77 114 77 114 81 114"/><path fill="#6b98d6" d="M130 98c3.123 1.518 6.13 3.18 9.125 4.938l2.633 1.527C144 106 144 106 146 109c.08 2.332.088 4.668 0 7l-4 1q-2.726-3.901-5.437-7.812l-1.565-2.237-1.494-2.158-1.38-1.984C131 101 131 101 130 98"/><path fill="#224b33" d="M172 77v2l-3 1 2.427.076q5.505.177 11.01.362l3.819.119c6.633.225 13.161.59 19.744 1.443v2c-2.882.96-4.699 1.106-7.687 1.063l-2.45-.028L194 85v-1q-5.969-.254-11.937-.5l-3.385-.145c-6.233-.255-12.44-.408-18.678-.355 1.402-2.804 3.267-3.538 6-5 2.145-.674 3.758-1 6-1"/><path fill="#93602f" d="M169.203 53.355 171 54c-7.98 6.292-15.983 12.548-24.062 18.71a147 147 0 0 0-6.165 5.09C138 80 138 80 135.625 79.814L134 79c.573-2.867.861-3.861 3-6l3 3v-2h3l.75-1.812c1.442-2.524 2.775-3.688 5.25-5.188h3v-2h2v-2l4-1v-2h3v-2c5.242-5.122 5.242-5.122 8.203-4.645"/><path fill="#252d40" d="M114.977 52.066C117.53 53.245 118.02 54.424 119 57h2l-1 2-1.437-2c-3.309-2.582-5.46-2.44-9.54-2.434-2.42.273-2.42.273-4.023 3.434l-2-1c1-3 1-3 2.5-4.812 3.477-1.652 5.803-.909 9.477-.122M102 58l1 3-1 2-35 1 1-2c2.379-.414 2.379-.414 5.563-.625l3.535-.234a152 152 0 0 1 8.148-.094l2.144.034c2.027.042 4.053.109 6.079.177 3.74-.273 5.545-1.064 8.531-3.258"/><path fill="#5e3d23" d="m182 41 3 2c-12.808 10.582-12.808 10.582-21 12l-1 3h-2v2h-3v2l-4 1v2h-2v2l-4 1v-2h2v-2l5-2v-2a393 393 0 0 1 5-3l1.75-1.812c3.374-3.28 7.308-5.642 11.25-8.188a944 944 0 0 0 3.375-2.25z"/><path fill="#3c82ad" d="m88 71 1 3-1.68.028c-2.525.054-5.047.138-7.57.222l-2.645.043c-5.18.138-5.18.138-9.59 2.629L66 79l-2 2-1-7c8.052-5.602 15.668-4.383 25-3"/><path fill="#733e9c" d="M145 97h9l-4 2c4.642 2.533 8.652 4.465 14 5v2l2.688.688c3.746 1.484 5.65 3.336 8.312 6.312-6.88-2.18-13.45-4.803-20.062-7.687l-2.913-1.26A2713 2713 0 0 1 145 101z"/><path fill="#84cee5" d="M113 68c2.783 2.783 3.181 5.971 4.063 9.688l.525 2.107C118.657 84.18 119.43 88.523 120 93h2v3l-3-1-1-3-5-2z"/><path fill="#e18788" d="m147 55 1 2-1.193 1.697a2143 2143 0 0 0-5.307 7.615l-1.879 2.67-1.777 2.569-1.65 2.364c-1.442 2.119-1.442 2.119-1.194 5.085l2 2a507 507 0 0 1-4.312 3l-2.426 1.688C128 87 128 87 125 87c.688-3.312.688-3.312 2-7l2.375-1.418c3.074-1.853 4.135-3.505 5.938-6.582 3.584-5.913 7.56-11.457 11.687-17"/><path fill="#ddeff8" d="M132 86q2.514.428 5 1v3h5c-3.163 1.672-6.382 2.922-9.75 4.125l-2.984 1.07L127 96c-4-4.625-4-4.625-4-8l6.152-.684c1.86-.135 1.86-.135 2.848-1.316"/><path fill="#4d3a56" d="m178 119 2.598.219c5.817.472 11.565.917 17.402.781l.688 1.875c1.691 2.74 3.304 3.175 6.312 4.125-3.384 1.128-3.735.928-6.812-.437-3.534-1.438-6.336-1.852-10.188-1.563l5 3-2 1c-2.785-1.11-2.785-1.11-6.062-2.75l-3.286-1.61C179 122 179 122 178 119"/><path fill="#382727" d="m167 49 3 1a466 466 0 0 1-3.375 2.5l-1.898 1.406C163 55 163 55 161 55l-.75 1.938C159 59 159 59 156.875 59.75L155 60v2c-1.287.697-2.58 1.382-3.875 2.063l-2.18 1.16L147 66l-2-1c3.652-5.42 7.149-10.59 12-15-.547 3.375-1.055 5.082-3 8 3.033-.762 3.033-.762 4.813-2.812C161.35 52.65 163.89 50.787 167 49"/><path fill="#376b89" d="M103 67v1l-2.826.044q-5.231.094-10.461.218-2.256.051-4.513.084c-2.173.034-4.344.087-6.516.142l-3.952.08c-5.346.619-9.343 1.892-13.044 5.995L60 77l-2 2c-.43-3.012-.604-5.142 1.195-7.7C69 61.129 90.115 66.385 103 67"/><path fill="#afb1f2" d="m134 95 3 1 .434 1.86c.773 2.923 2.184 3.683 4.629 5.39l2.222 1.578L146 106l-1 2-15-10 3 4-1 2-1.812-1.437c-2.192-1.728-2.192-1.728-5.188-2.563l1 8c-1.903-2.855-2.462-4.42-3.125-7.687l-.508-2.45L122 96l2.688.563c3.18.42 5.257.31 8.312-.563z"/><path fill="#8582b7" d="M159 136h2c-2.245 5.06-6.002 8.275-10 12l-2.621 2.52c-7.831 7.053-7.831 7.053-13.941 7.167-3.262-.234-4.074-.323-6.438-2.687l6.152-.586L136 154l1-2 1.629.824c2.65.46 2.65.46 5.21-1.992a184 184 0 0 0 3.099-3.02q1.542-1.492 3.09-2.98c.495-.483.992-.965 1.503-1.462 1.366-1.274 2.823-2.446 4.285-3.608 2.265-1.578 2.265-1.578 3.184-3.762"/><path fill="#2a596a" d="M57 75c1.578 5.141.746 10.216.313 15.5l-.202 3.168-.248 3.05-.21 2.78c-.825 3.162-2.146 4.46-4.653 6.502-2.781.508-5.146.19-8 0 3-2 3-2 10-4V80h2z"/><path fill="#233944" d="M85 130c3.875 1.75 3.875 1.75 5 4 1.895.465 1.895.465 4.063.625L98 135l-1 5-3.578.184-4.672.254-2.355.119-2.286.127-2.094.11c-2.081.213-4 .651-6.015 1.206l1-3 6.152-.586L85 138c1.43-2.862.6-4.934 0-8"/><path fill="#3e5e7a" d="M105 112h2c3.514 7.614 2.82 16.243 0 24h-1v-19h-2l-.25 3.688c-.502 4.093-1.737 6.39-4.75 9.312h-2v-2h2v-3h2l.367-1.828.508-2.422.492-2.39c.625-2.328 1.481-4.25 2.633-6.36"/><path fill="#387456" d="M183 87c-14.597 4.592-14.597 4.592-22 4v2l-15-1c2.779-2.779 4.959-2.604 8.836-3.105l2.048-.268q2.144-.277 4.292-.542c2.185-.27 4.368-.559 6.55-.849q2.087-.266 4.172-.529l3.834-.485c2.812-.191 4.644-.14 7.268.778"/><path fill="#742a39" d="M141 63c-1.439 4.078-3.417 7.306-5.937 10.813l-2.09 2.957L131 79h-3c-.571-4.857 1.075-7.205 4-11 4.348-5 4.348-5 9-5"/><path fill="#2b354a" d="M182 103c5.353-.099 10.472-.009 15.781.785 3.886.376 7.782.178 11.68.055C212 104 212 104 214 106l-8 1v2l-12-1v-2l-1.863-.148-2.45-.227c-.8-.07-1.6-.14-2.425-.21C185 105 185 105 182 103"/><path fill="#572a2a" d="m147 60 2 1-2 4 3 1h-2l-.25 1.75c-.976 2.928-2.385 4.302-4.75 6.25h-3v2l-3-1c.53-4.507 2.196-7.454 5-11h3z"/><path fill="#23313e" d="M52 124h1v43h-1c-.92-4.655-1.122-9.147-1.062-13.875l.013-2.086q.02-2.52.049-5.039h-1c-.3-7.551.574-14.589 2-22"/><path fill="#97aedf" d="M111 112h2c1.561 22.496 1.561 22.496-5.86 31.758A253 253 0 0 1 101 150c1.993-5.617 4.754-11.754 9-16 .37-2.325.37-2.325.414-5.008l.117-2.988.094-3.129.117-3.152q.142-3.86.258-7.723"/><path fill="#4e7ccc" d="M127 117c2.832 2.832 3.418 6.146 4 10-.375 3-.375 3-1 5h-2l-1-2-3-1v-4l-5 2q1.435-1.939 2.875-3.875l1.617-2.18C125 119 125 119 127 117"/><path fill="#362c7f" d="M87 117c3 0 3 0 5.188 2L94 121l1-2 2 1c-.468 4.056-.88 7.466-3 11-3-1-3-1-4.625-3.625-1.43-3.51-2-6.616-2.375-10.375"/><path fill="#6fadd6" d="m109 87 2 1v9l-1-4h-2l-.445 1.703c-1.774 6.648-3.678 13.258-5.618 19.86l-.78 2.706-.755 2.547-.672 2.296C99 124 99 124 97 126c.605-4.814 1.54-9.356 2.848-14.027l.533-1.92q.837-2.998 1.681-5.99.573-2.048 1.143-4.096A4097 4097 0 0 1 106 90l2 1z"/><path fill="#7c88e8" d="M112 134c3.571 1.88 5.547 3.17 7 7-6.75 4-6.75 4-9 4v2l-4 1c1.835-4.74 3.92-9.364 6-14"/><path fill="#66c4d8" d="M130 106h4c2.967 3.627 4 5.245 4 10-6.625.25-6.625.25-10-2-.312-3-.312-3 0-6z"/><path fill="#77a4cf" d="M132 138c3.239 2.586 3.793 5.226 4.688 9.188l.761 3.292L138 153l-8.3-5.273A360 360 0 0 1 124 144l1-3 5 3v-4h2z"/><path fill="#324768" d="M175 97c7.897-.484 15.335 1.323 23 3v2l12 2v1c-6.088.112-11.996.092-18-1l-1-2a118 118 0 0 0-7.5-1.5A118 118 0 0 1 176 99z"/><path fill="#8ae" d="M138 91h4v3l1.753.244c21.229 2.96 21.229 2.96 30.247 4.756v1c-12.039-.85-12.039-.85-16.625-1.562-3.102-.403-5.883-.4-9-.313-4.24.035-7.174-.034-10.375-3.125z"/><path fill="#3d6b8a" d="M46 116c7.514-.37 7.514-.37 9.6 1.216 1.822 2.322 1.795 3.69 1.832 6.623l.06 2.972.02 3.2.054 3.284c.054 3.464.088 6.928.121 10.393q.05 3.52.104 7.04.126 8.637.209 17.272c-2.438-2.438-2.264-3.103-2.319-6.45l-.06-2.79-.035-3.018-.059-3.085c-.06-3.26-.106-6.521-.152-9.782l-.117-6.621A4504 4504 0 0 1 55 120h-2v-2l-7-1z"/><path fill="#6e94c0" d="M108 93h2c1.167 4.164 1.126 8.19 1.098 12.484l-.005 2.472a2833 2833 0 0 1-.03 7.794q-.009 2.646-.014 5.293A5858 5858 0 0 1 111 134l-2 1v-33l-4 2c.468-4.056.88-7.466 3-11"/><path fill="#626134" d="M202 61c-3.149 1.766-5.65 2.953-9.25 3.438-3.34.5-5.465 1.222-8.5 2.562-5.36 2.276-10.47 2.78-16.25 3 3.188-2.125 5.265-2.502 9-3v-2c17.464-6.512 17.464-6.512 25-4"/><path fill="#29364c" d="m76.613 62.902 3.78.01 3.92.026 3.978.013Q93.146 62.97 98 63v1l-2.719.073a679 679 0 0 0-10.086.397q-2.174.091-4.347.147c-8.047.214-14.525.41-20.465 6.518C58.282 73.969 57.094 76.649 56 80h-1c-.125-5.75-.125-5.75 1-8h2v-2c1.355-1.473 1.355-1.473 3.188-3.062l1.792-1.598c4.132-2.741 8.815-2.46 13.633-2.438"/><path fill="#629cbf" d="m70 116-3 2a64 64 0 0 0-.293 7.852l.013 2.345c.017 2.476.054 4.952.093 7.428q.022 2.515.04 5.031.053 6.173.147 12.344h3c-.25 1.813-.25 1.813-1 4l-4 3-1-44c3-1 3-1 6 0"/><path fill="#6ea9db" d="M135 134h7c.207 5.789-.408 10.43-2 16h-2z"/><path fill="#8379e9" d="M131 119a5173 5173 0 0 1 6.64 1.465c2.129.483 4.245.997 6.36 1.535l-1 5-8 1c-4-6.75-4-6.75-4-9"/><path fill="#767ecf" d="M128 117c4.565.543 7.973 1.795 12 4-3 1-3 1-6.187-.437L131 119l1 2.125c1.09 3.135 1.153 5.58 1 8.875l2 1-1 8c-2-1-2-1-3.062-4.125-.88-3.636-1.474-7.165-1.938-10.875l-.562-3.937z"/><path fill="#283358" d="M160 102c8.617-.307 15.935-.396 24 3v1l-3.437.375L177 107l-1 2c-3.1-.937-5.788-1.87-8.562-3.562-2.53-1.492-4.551-2.026-7.438-2.438z"/><path fill="#447a9b" d="M99 91c1.26 3.779.48 5.034-.937 8.688l-1.153 3.011L96 105h-2v3l-4 1a633 633 0 0 1-2.562-5.375l-1.442-3.023L85 98l1-2 3.613 4.688c1.432 1.656 1.432 1.656 4.387 1.312z"/><path fill="#25165f" d="M44 110h22l1 3H44z"/><path fill="#2d2c71" d="M80 146h19l-2 5H81v-1l5-1v-2h-6z"/><path fill="#6e9ed4" d="M107 66c1.602 3.203.096 6.203-.812 9.5l-.542 2.09c-1.391 5.155-1.391 5.155-3.646 7.41l-1-9H80v-1h23l1-6h2z"/><path fill="#d398f2" d="M139 96c4.653 1.635 4.653 1.635 6.363 3.433 2.017 1.93 3.95 2.753 6.524 3.829l2.842 1.2c.976.405 1.952.81 2.958 1.225l2.995 1.26q3.654 1.536 7.318 3.053c-3.673 1.224-4.432.657-7.887-.871l-2.842-1.24-2.958-1.326-2.995-1.315A1162 1162 0 0 1 144 102l-2 2-5-5z"/><path fill="#439ebd" d="M80 70h23l-1 4H89l-1-3h-8z"/><path fill="#5a477f" d="m155 114 2 1v3l1.75.25c3 1 4.258 2.3 6.25 4.75 1.138 6.434.644 12.534-3 18h-3l1.438-2.062c1.866-3.51 2.492-5.957 2.562-9.938-1.647-3.096-1.647-3.096-4-6-4-6.41-4-6.41-4-9"/><path fill="#332c28" d="M192 38v5l-3 1-.445 1.797c-.75 2.98-2.26 4.307-4.43 6.453l-2.117 2.14C180 56 180 56 177 56c1.426-3.452 3.097-5.101 6.125-7.25l2.195-1.578L187 46l-.687-2.312C186 41 186 41 187.25 39.188 189 38 189 38 192 38"/><path fill="#81b5c2" d="m112 59 3 1v3h2c3.223 5.273 3.223 5.273 4 7l-1 2-3 1-2 3c-1.546-5.67-2.485-11.147-3-17"/><path fill="#23074f" d="M61 143h1c.08.565.16 1.13.244 1.712.368 2.556.75 5.11 1.131 7.663l.383 2.695.39 2.578c.116.786.23 1.571.35 2.38.379 2.19.379 2.19 2.502 3.972h-3v5h-3z"/><path fill="#68cbdd" d="M147 126c4.498 1.687 8.729 3.817 13 6v3l-5 2v-5h-9z"/><path fill="#6facdb" d="M80 103c3.028 3.46 4.986 7.522 6 12-.422 2.25-.422 2.25-1 4l-4-6-5 1c.607-4.128 2.038-7.332 4-11"/><path fill="#435f84" d="m97 79 3 1c.972 9.148-1.397 15.151-6 23-1.922-.371-1.922-.371-4-1-1.25-2.062-1.25-2.062-2-4l6 2 .313-3.187C95 93 95 93 96.563 90.5c1.901-3.307 1.72-5.747 1.437-9.5z"/><path fill="#414130" d="M200.297 62.883 202 64l-2 1-1 3c-2.145.984-2.145.984-4.812 1.75l-2.645.797c-2.597.463-4.077.304-6.543-.547l5-2-1-2a198 198 0 0 1 4.25-2.125l2.39-1.195c2.36-.68 2.36-.68 4.657.203"/><path fill="#39458d" d="m62 75 2 1v17l-2-3-1 6h-1q-.08-4.125-.125-8.25l-.05-2.355c-.062-7.12-.062-7.12 2.175-10.395"/><path fill="#4b84ae" d="m109 61 1 2c-1.405 4.215-1.405 4.215-4 6-2.73.262-5.225.35-7.95.293l-2.34-.013a853 853 0 0 1-7.397-.093q-2.51-.022-5.018-.04Q77.147 69.093 71 69v-1l2.858-.012c3.514-.027 7.026-.077 10.54-.14q2.276-.035 4.553-.044c2.188-.009 4.373-.05 6.56-.097l3.984-.048c4.3-.809 5.75-2.347 8.505-5.659z"/><path fill="#397a93" d="M57 79h1c.058 4.104.094 8.208.125 12.313.017 1.167.034 2.334.05 3.537l.02 3.388.032 3.127C58 104 58 104 56 107c-1.945.293-1.945.293-4.125.188L48 107l1.813-.812C52.093 104.95 53.38 104.02 55 102c.595-2.504.595-2.504.73-5.324l.245-3.115.212-3.249.249-3.283q.3-4.013.564-8.029"/><path fill="#4f6b98" d="M73 77q6.406-.041 12.813-.062l3.681-.026 3.526-.01 3.253-.016C99 77 99 77 102 78c.054 1.625.093 3.25.125 4.875l.07 2.742C102 88 102 88 100 90l-.148-2.152-.227-2.785c-.07-.917-.14-1.834-.21-2.778-.138-.754-.274-1.508-.415-2.285-2.662-1.33-4.687-1.113-7.664-1.098l-3.398.01-3.563.025-3.586.014Q76.394 78.97 72 79z"/><path fill="#785fdb" d="m115 112 4 2c.178 4.548-.002 7.88-2 12l-3-1c-.077-4.516-.102-8.59 1-13"/><path fill="#273647" d="M72 81h22c-2 2-2 2-5.695 2.195a330 330 0 0 1-4.43-.07l-2.285-.027c-1.864-.024-3.727-.06-5.59-.098l-.937 2.813L73 92l-2-1c-.125-6.625-.125-6.625 1-10"/><path fill="#37372e" d="m192 71-8 4-2 1.125c-2.257.987-3.802 1.082-6.25 1L172 77c4.611-5.111 13.395-8.202 20-6"/><path fill="#393555" d="M116 57c3.083 1.199 6.063 2.477 9 4v6l6 2-1 5h-2c-1.402-1.574-1.402-1.574-2.937-3.687l-1.61-2.215c-1.597-2.306-3.04-4.675-4.453-7.098a163 163 0 0 0-3-4"/><path fill="#63252e" d="M149 46h1v5l-1.812.625C145.19 53.509 144.386 55.811 143 59h-2v4h-3c1.662-6.694 3.409-9.955 9-14z"/><path fill="#ad5a62" d="m157 40 1 2a977 977 0 0 1-3.687 5.688l-2.075 3.199c-2.192 3.049-4.517 5.535-7.238 8.113l-2.312 2.313L141 63v-4h2l.688-3.375L145 52l2.344-.906c3.42-1.409 4.463-3.152 6.469-6.219l1.832-2.758z"/><path fill="#42507e" d="m106 60 1 2c-1.091 2.594-1.091 2.594-3 5-2.544.568-2.544.568-5.543.488l-3.252-.049-3.392-.126-3.428-.069Q84.192 67.155 80 67v-1l1.74-.12c2.63-.192 5.257-.41 7.885-.63l2.738-.187c5.707-.5 9.177-1.418 13.637-5.063"/><path fill="#373652" d="m144 156 4 1-3 1v2c-6.76 2.576-13.836 2.632-21 2l-2-2 21-1z"/><path fill="#4b8ada" d="M122 125h2v4l4 1c-.187 1.875-.187 1.875-1 4-2.562 1.25-2.562 1.25-5 2-1.627-3.253-1.115-6.392-1-10z"/><path fill="#799fd6" d="m77 96 1 3-5 10H48v-1h23l2-6a124 124 0 0 1 4-6"/><path fill="#65513f" d="m185 42 2 1c0 4 0 4-2.062 6.125-3.366 2.148-6.073 2.966-9.938 3.875 1.326-5.637 5.466-7.932 10-11"/><path fill="#396f80" d="m106 156-2-.484c-3.675-.632-7.283-.739-11-.766l-2.117-.062c-4.575-.035-7.12.794-10.883 3.312l-2-1c2.857-3.646 5.275-4.589 9.844-5.16l2.156-.215 2.156-.285c6.341-.722 9.02.87 13.844 4.66"/><path fill="#546cd5" d="M144 136h3v2h5v4c-3.228 2.152-4.284 2.2-8 2z"/><path fill="#21352b" d="m172 77 4 1-1 2 3.508-.254 4.617-.308 2.305-.17c4.37-.283 8.25-.2 12.57.732l-1 2-30-1 2-2h3z"/><path fill="#35768e" d="M106 136c.356 3.201.345 4.555-1.663 7.147-2.9 2.3-4.318 2.321-7.978 2.244l-3.242-.04-3.367-.101-3.414-.055Q82.167 145.124 78 145l1-2h21v-2c4.643-5 4.643-5 6-5"/><path fill="#306171" d="m69 119 2 1-1 1a99 99 0 0 0-.098 5.348l.01 3.271.025 3.444.014 3.455q.018 4.241.049 8.482c2.13 1.35 2.13 1.35 5.125.063L78 144c-2.834 3.254-4.686 4.52-9 5-1.073-3.218-1.13-5.563-1.133-8.945l-.004-3.512.012-3.668-.012-3.691.004-3.504.004-3.227C68 120 68 120 69 119"/><path fill="#4971bc" d="M146 110c3.027 2.724 5.092 4.963 6 9-1.25 2.313-1.25 2.313-3 4h-2c-1.322-2.645-1.097-4.678-1.062-7.625l.027-3.04z"/><path fill="#366c7f" d="M81 114c3 4.071 3 4.071 3 7h2l2 7h-2v-3h-2l-4-7h-7c3.5-4 3.5-4 8-4"/><path fill="#357081" d="m70 79 2 1-2 4h-2l1 14h5l-2 4h-5a803 803 0 0 1-.187-9.812l-.077-2.815-.029-2.705-.048-2.491c.415-2.652 1.296-3.51 3.341-5.177"/><path fill="#23343e" d="M110 159v1h-10v-2a958 958 0 0 0-6.187.875l-3.481.492c-3.02.574-5.538 1.38-8.332 2.633 4.122-9.127 19.94-5.262 28-3"/><path fill="#25414b" d="M77.438 116.438c3.246.712 3.603 1.643 5.374 4.374C84.455 123.587 85 124.713 85 128l-3 1-3-9h-8v-2c2.123-.629 4.28-1.065 6.438-1.562"/><path fill="#5c4bb4" d="M146.563 143.938 150 144c-1.426 3.452-3.097 5.101-6.125 7.25l-2.195 1.578L140 154q.463-2.22.938-4.437l.527-2.497c.91-3.513 1.192-3.06 5.097-3.129"/><path fill="#6387bc" d="M78 112c3.813.394 5.491 2.24 8 5l2 2c1.544 4.389 2.147 6.412 1 11l-3-9h-2c-3-4.385-3-4.385-3-7l-4-1z"/><path fill="#99a0c9" d="m140 114 1.875 1c2.035 1.142 2.035 1.142 4.125 1v7l-10-3 3-1z"/><path fill="#65abd3" d="M103 83c.986 3.086.987 4.978.074 8.074l-.666 2.272-.72 2.341-.686 2.377c-.6 2-1.294 3.972-2.002 5.936l-2 1c-.412-5.448 1.01-9.42 3-14.375l.867-2.23A710 710 0 0 1 103 83"/><path fill="#70abdc" d="M125 100c2.782.376 4.588.673 6.813 2.438C133 104 133 104 133 106l-1.875.875c-2.258 1.062-2.258 1.062-4.125 3.125-1.316-3.62-2-6.096-2-10"/><path fill="#8ddbe7" d="M113 68c3.523 3.523 3.917 7.983 4.313 12.813L117 84l-3 2c-1.206-3.619-1.108-6.925-1.062-10.687l.013-2.127q.02-2.594.049-5.186"/><path fill="#4b3725" d="m182 41 3 2c-9.041 7.852-9.041 7.852-16 8 3.12-3.299 6.028-5.805 10-8z"/><path fill="#6888be" d="M174 99c7.788.516 15.35 1.449 23 3v1c-8.206.296-15.924-.562-24-2z"/><path fill="#effacf" d="M137 87v3h5c-3.407 2.413-6.223 2.093-10.16 1.492-2.302-.616-3.482-1.54-4.84-3.492 3.782-1.837 5.946-2.158 10-1"/><path fill="#5c743c" d="M166 79c-3.797 2.826-6.186 4.566-11 4v2h-6v2h-3v-2c16.568-7.716 16.568-7.716 20-6"/><path fill="#70599d" d="m160 138 2 1a1072 1072 0 0 1-4.875 5l-2.742 2.813C152 149 152 149 150 149l-1 3c-1.629 1.387-1.629 1.387-3.562 2.688l-1.942 1.324L142 157l-2-1 2.852-2.414 3.773-3.211 1.871-1.582c4.026-3.433 7.808-7.006 11.504-10.793"/><path fill="#86c2de" d="M110 79c2.45 3.742 2.23 7.442 2.125 11.75l-.027 2.113c-.024 1.713-.06 3.425-.098 5.137h-1l-1-10-2 4c-1.088-3.265-.899-4.37-.125-7.625l.555-2.414C109 80 109 80 110 79"/><path fill="#e48eaa" d="M132 77c.687 2.49 1 4.379 1 7-2.888 2.108-4.385 3-8 3 1.354-6.523 1.354-6.523 4.625-8.937z"/><path fill="#6b92cb" d="m143 107 3 2c.188 3.625.188 3.625 0 7l-4 1c-2-3-2-3-1.625-5.687L141 109h2z"/><path fill="#4563a9" d="M123 103c2.967 2.967 3.809 6.303 4.273 10.43-.352 3.312-1.503 4.49-3.773 6.882l-1.969 2.114L120 124c0-3.72 1.348-5.695 3-9 1.298-4.217.761-7.688 0-12"/><path fill="#f1e2a7" d="m133 83 1 2c4.03-.553 8.02-1.156 12-2-2.855 2.326-5.45 3.961-9 5-2.75-.437-2.75-.437-5-1l-1 1c-1.666.04-3.334.043-5 0 2.363-2.526 3.665-3.888 7-5"/><path fill="#34679c" d="M68.938 71.25 71 72c1.665.34 3.332.676 5 1v1l-3.75.688C68.08 75.7 66.324 77.32 64 81l-1-7c3.44-3.072 3.44-3.072 5.938-2.75"/><path fill="#524176" d="M158 142c0 4.195-2.314 6.057-5 9l-2.562 2.938C148 156 148 156 145.688 155.813L144 155l2.188-1.687c2.792-2.297 5.29-4.726 7.812-7.313z"/><path fill="#42678c" d="M105 112h2c3.514 7.614 2.82 16.243 0 24h-1l.254-3.36.308-4.39.17-2.21c.245-3.59.265-6.59-.732-10.04h-2z"/><path fill="#1e2a42" d="M180 95c7.193.462 14.003 1.25 21 3l-1 2c-7.77.416-13.146-1.512-20-5"/><path fill="#524cc6" d="M121 112h3c-1.152 5.184-3.179 9.511-6 14-.562-1.937-.562-1.937-1-4l1-1 .438-3.437C119 114 119 114 121 112"/><path fill="#9eabe8" d="M122 96c5.35.373 7.51 1.996 11 6l-1 2-1.812-1.437c-2.192-1.728-2.192-1.728-5.188-2.563l1 8c-1.903-2.855-2.462-4.42-3.125-7.687l-.508-2.45z"/><path fill="#3f8fb4" d="m105 85 2 1c-.857 8.571-.857 8.571-3 12v-2l-3-1 2-8h2z"/><path fill="#885a2f" d="M169.203 53.355 171 54a593 593 0 0 1-6.25 5.063l-1.777 1.47C161.234 61.91 161.234 61.91 158 64c-2.202-.37-2.202-.37-4-1l4-1v-2h3v-2c5.242-5.122 5.242-5.122 8.203-4.645"/><path fill="#78363e" d="M152 50h2c-.718 6.278-4.615 9.772-9 14l-2-1q2.176-3.258 4.375-6.5l1.25-1.879c1.074-1.576 2.22-3.103 3.375-4.621"/><path fill="#7f63b2" d="m147 104 4 1-1 3 1.5 1.313C153 111 153 111 153 114h2a101 101 0 0 1 3 6l-1 2a528 528 0 0 1-4.437-5.625l-1.276-1.582c-2.747-3.56-3.917-6.316-4.287-10.793"/><path fill="#98a1dd" d="m142 101 7 2-.687 1.625c-.449 3.408 1.13 5.391 2.687 8.375l-1 2-4-5-2 1 .688-2.187c.396-3.569-.644-4.952-2.688-7.813"/><path fill="#7d5e2c" d="m154 68 2 1-1.496 1.46-1.941 1.915-1.934 1.898C148.92 75.917 148.92 75.917 148 78l4-1v2l-8 1c1.37-5.653 5.677-8.511 10-12"/><path fill="#4b7bd0" d="M116 142h4l-1 9 4 1h-11l4-2z"/><path fill="#2c475c" d="M104 121c1.984 2.917 1.988 4.124 1.625 7.75L105 132l-2-3-4 4c.576-4.755 2.55-7.97 5-12"/><path fill="#70b6e3" d="M96 106c1.26 3.779.48 5.034-.937 8.688l-1.153 3.011L93 120c-2.565-2.565-2.54-4.477-3-8h4l.438-1.875C95 108 95 108 96 106"/><path fill="#386eb1" d="M127 117c2.525 2.525 2.557 4.138 3.125 7.625l.508 3.04L131 130c-2.025-1.933-3.421-3.632-5-6l-3-1c1.152-2.468 2.048-4.048 4-6"/><path fill="#1f323e" d="m51 99 1 3-2.152.367-2.785.508-2.778.492L42 104c-1.47 2.94-2.712 5.976-4 9l-2-3c2.75-5.75 2.75-5.75 5-8 2.383-.414 2.383-.414 5.125-.625l2.758-.227L51 101z"/><path fill="#7d5ac0" d="M145 97h9l-4 2 4 5-9-3z"/><path fill="#c3caf5" d="m138 92 1 7c-3-1-3-1-4-2a180 180 0 0 0-6-1l-1 2v-3q1.935-.755 3.875-1.5l2.18-.844C136 92 136 92 138 92"/><path fill="#46acc4" d="M107 76h2l-1 13-2-3-2 1c.551-3.95 1.39-7.35 3-11"/><path fill="#767545" d="m181 69 1 3a483 483 0 0 1-5.75 3.063l-3.234 1.722c-3.042 1.225-4.065 1.468-7.016.215l2.313-.812c2.652-.968 2.652-.968 4.062-2.626 2.499-2.402 5.416-3.29 8.625-4.562"/><path fill="#44adc8" d="M124 146h4c4 4.222 4 4.222 4 7l-9-1 2-4z"/><path fill="#75c0c8" d="m131 144 1 2 4-1 2 8-11-7z"/><path fill="#263842" d="m79 119-6 4c-.414 1.93-.414 1.93-.293 4.133l.03 2.441c.024.842.05 1.684.076 2.551l.04 2.574c.036 2.1.09 4.201.147 6.301h-2v-21c2.709-1.354 5.01-1.065 8-1"/><path fill="#5892da" d="M114 98h7l-4 1v9l-4-1z"/><path fill="#5f7bb8" d="M144 129h1a900 900 0 0 1-.375 7.188c-.03.673-.062 1.347-.094 2.04-.232 3.969-.815 7.18-2.531 10.772h-1c-.485-6.945 1.307-13.299 3-20"/><path fill="#33293b" d="M187 123c4.824-.193 8.496.243 13 2v1h-6v2l3 1-2 1c-2.82-2.21-5.53-4.4-8-7"/><path fill="#3b75a3" d="M101 96h3c-.52 4.38-1.057 8.688-2 13h-1c-2.215-7.262-2.215-7.262-1.125-11z"/><path fill="#294d77" d="M153 92c6.746.664 13.344 1.719 20 3l-2 2c-2.602-.023-2.602-.023-5.625-.375l-3.04-.336L160 96v-2h-6z"/><path fill="#5b73a7" d="m97 149 15 1v2q-2.655.291-5.312.563l-2.989.316c-3.282.147-5.6-.846-8.699-1.879h2z"/><path fill="#907dc2" d="M159 136h2c-1.453 3.341-3.296 5.565-5.875 8.125l-2.055 2.07c-1.957 1.707-3.7 2.774-6.07 3.805 1.494-3.642 3.577-5.604 6.563-8.125 3.184-2.57 3.184-2.57 5.437-5.875"/><path fill="#6174cb" d="M112 134c3.265 1.804 4.89 2.834 7 6-2.812.625-2.812.625-6 1l-3-2z"/><path fill="#478ed3" d="M147 133q3.012.43 6 1l1 6-2 1v-3h-5c-.562-1.937-.562-1.937-1-4z"/><path fill="#7cab63" d="m147 83 2 1-3 1 2 4h-9c1-3 1-3 4.438-4.75z"/><path fill="#7aa8cf" d="M111 98h2c1.13 5.023.78 8.979 0 14h-2z"/><path fill="#292544" d="m165 103 13 2-2 4c-4.043-1.222-7.493-2.628-11-5z"/><path fill="#36639a" d="m99 103 2 1c.194 5.527-.252 9.756-2 15h-1l.035-2.117.028-2.758.035-2.742c.064-2.4.064-2.4-1.098-4.383.938-2.125.938-2.125 2-4"/><path fill="#3664a3" d="M157 96c2.229-.054 4.458-.093 6.688-.125l3.761-.07c3.363.185 5.55.737 8.551 2.195v1q-3.063-.215-6.125-.437l-3.445-.247c-3.184-.293-6.285-.747-9.43-1.316z"/><path fill="#334e3c" d="m182.313 88.438 3.238.308L188 89v1c-6.382.824-12.567 1.12-19 1 3.783-3.783 8.272-3.061 13.313-2.562"/><path fill="#e9ba81" d="m144 74 2 1-1.715 1.46-2.222 1.915-2.215 1.898c-1.932 1.604-1.932 1.604-2.848 3.727l4 1h-7c.353-2.9.887-3.895 3.066-5.922l2.496-1.828 2.504-1.86z"/><path fill="#d4d485" d="M185 68a2349 2349 0 0 1-7.375 3.5l-2.117 1.012C170.227 75 170.227 75 168 75c1-3 1-3 3.582-4.422l3.23-1.328 3.208-1.36c2.954-.882 4.17-1.006 6.98.11"/><path fill="#405578" d="m76 159 2 1c-2.074 5.069-4.272 7.268-9 10l-1-3 2.375-.687c2.836-1.086 2.836-1.086 3.875-3.875L75 160z"/><path fill="#6fd6dc" d="m137 139 4 1-1 10h-2z"/><path fill="#5f75a2" d="M109 58c5.488-.366 5.488-.366 7.75 1.25 1.352 1.892 2.431 3.567 3.25 5.75l-1 3-2-5h-2l-1-3c-2.015-.733-2.015-.733-4-1l-2 4-2-1 1-2h2z"/><path fill="#70a8da" d="m65 150 2 1v2h3c-.25 1.813-.25 1.813-1 4l-4 3z"/><path fill="#5e347b" d="M164 112c6.067 1.038 11.437 2.34 17 5v1c-6.622-.307-11.221-1.743-17-5z"/><path fill="#653688" d="M160 104h4v2l2.688.688c3.746 1.484 5.65 3.336 8.312 6.312-9.52-2.685-9.52-2.685-13-7z"/><path fill="#41549a" d="M149 98c12.67-.185 12.67-.185 18 1v1a612 612 0 0 1-6.75.625l-3.797.352c-3.289.022-4.763-.197-7.453-1.977z"/><path fill="#a75a41" d="m136 73 1.813.938C140.09 75.102 140.09 75.102 143 76c-2.25 2.063-2.25 2.063-5 4-2.312-.25-2.312-.25-4-1 .506-2.169 1-4 2-6"/><path fill="#9e466b" d="m134 71 2 1-6 8-2-1v-5l2.438-.937c2.453-.826 2.453-.826 3.562-2.063"/><path fill="#322722" d="M184 40c-1.269 2.537-2.497 2.786-5 4l-2 2c-2.5 1.688-2.5 1.688-5 3l-2-1a654 654 0 0 1 3.813-3.437l2.144-1.934C178.687 40.452 180.517 40 184 40"/><path fill="#3e3633" d="M192 38v5l-5 2c-.687-1.812-.687-1.812-1-4 1.951-2.732 2.553-3 6-3"/><path fill="#5b3838" d="m162 35 4 1c-4 6.571-4 6.571-8 8 .53-3.821 1.497-6.062 4-9"/><path fill="#353f88" d="M85 111c2.375.563 2.375.563 5 2 1.313 3.625 1.313 3.625 2 7l-2-1v-2h-4z"/><path fill="#233239" d="M182 90v2h-6l1 3-8-2v-2q2.406-.253 4.813-.5l2.707-.281C179 90 179 90 182 90"/><path fill="#9c88ca" d="M121 71a141 141 0 0 1 5 5v2h2c-1.152 2.468-2.048 4.048-4 6l-3-1 3-2c-.787-3.41-1.871-6.689-3-10"/><path fill="#424022" d="M168 69c-2.366 2.739-4.549 3.932-8 5-2.812.125-2.812.125-5 0 3.168-4.752 7.495-5.324 13-5"/><path fill="#78a7c7" d="m108 136 2 3-8 11-1-2c1.434-2.82 1.434-2.82 3.438-6.125l1.996-3.32z"/><path fill="#7497db" d="M135 131h8v7l-1-4h-7z"/><path fill="#649fd7" d="M122 121v3l-2 2c.32 2.603.32 2.603 1 5h-5c.414-4.833 2.464-6.827 6-10"/><path fill="#546f9e" d="M107 106c2.326 3.634 2.163 6.77 2 11-2-3-2-3-2-5l-3 1c.375-2.937.375-2.937 1-6z"/><path fill="#3f879c" d="M85 96c3 2 3 2 3.938 5 .757 3.11.757 3.11 3.187 4.375L94 106v2l-4 1q-1.256-2.685-2.5-5.375l-1.406-3.023C85 98 85 98 85 96"/><path fill="#305a6e" d="M95 93h1c.25 6.625.25 6.625-2 10-1.875-.25-1.875-.25-4-1-1.25-2.062-1.25-2.062-2-4l6 2z"/><path fill="#8ec1e9" d="M138 91h4v3l7 1v1h-10z"/><path fill="#843839" d="m142 64 1 4h-2l-1 8-3-1c.531-4.515 2.366-7.347 5-11"/><path fill="#45362d" d="m175 55 1 2c-3.362 3.659-6.36 6.144-11 8l-2-1z"/><path fill="#2c3d4b" d="m82 158 2 1c-2.69 3.587-5.481 6.242-9 9l-1 2h-2c1.285-2.867 2.571-4.976 5-7h2l.375-1.937L80 159z"/><path fill="#8090e2" d="M130 137v7l-4-1-1-4z"/><path fill="#203f4a" d="M161 91h8v2l4 1h-11z"/><path fill="#81a9ba" d="m117 78 .313 1.938L118 82l3 1v10c-3.102-4.653-4.338-9.415-4-15"/><path fill="#303022" d="m194 56 3 2-2 3c-2.164.293-2.164.293-4.625.188l-2.477-.083L186 61c1.313-1.5 1.313-1.5 3-3h3z"/><path fill="#6978b3" d="m158 135 2 1c-3.06 3.935-5.491 6.681-10 9 0-3 0-3 1.75-4.824l2.25-1.863 2.25-1.887z"/><path fill="#53ccda" d="m129 109 5 1 1 4h-7z"/><path fill="#4a7ccf" d="M117 99h6l1 4c-3 0-3 0-6-1v6h-1z"/><path fill="#6da6da" d="M116 92h3l1 3 2 1-1 3-5-1z"/><path fill="#2a4e5b" d="M70 82h2l-.219 2.336-.281 3.039-.281 3.023c-.247 2.499-.247 2.499-.219 4.602l2 1h-4q-.04-2.937-.062-5.875l-.036-3.305C69 84 69 84 70 82"/><path fill="#89a4d2" d="M116 63c4.429 5.143 4.429 5.143 5 9l-4 1c-1.04-3.38-1.08-6.478-1-10"/><path fill="#3d3f33" d="M208 57v2c-4.982 1.916-9.727 2.555-15 3 2.31-2.31 3.83-2.722 6.938-3.625.875-.26 1.75-.52 2.652-.79C205 57 205 57 208 57"/><path fill="#6a6bdf" d="m115 112 4 2-1 5h-3z"/><path fill="#6b98cc" d="M77 96c1 3 1 3 .004 5.48l-1.442 2.707-1.433 2.731L73 109l-2-3z"/><path fill="#284a56" d="m85 92 4 1 1 4h4v3c-2.375-.187-2.375-.187-5-1-1.312-2.562-1.312-2.562-2-5h-2z"/><path fill="#86c1dc" d="M118 86c1.46 2.647 2 3.894 2 7h2v3l-3-1-1-3c-2-1.209-2-1.209-4-2h2v-2h2z"/><path fill="#214957" d="m61 68 2 1-2.375 2.688C58.428 74.308 57.062 76.718 56 80h-1c-.125-5.75-.125-5.75 1-8h2v-2z"/><path fill="#5196b4" d="M103 143c0 3.106-.54 4.353-2 7h-3l1-5-4-1 3.438.063c3.378.353 3.378.353 4.562-1.063"/><path fill="#79b2e5" d="M117 130h3l1 7-6-3z"/><path fill="#5e54a2" d="M113 116h1l.148 1.898.227 2.477c.07.812.14 1.624.21 2.46.244 2.368.244 2.368 2.415 4.165l-4 4z"/><path fill="#4a7e9a" d="M103 110h1c.426 5.537-1.095 9.897-3 15-1.116-3.37-.868-5.74-.125-9.187l.555-2.668C102 111 102 111 103 110"/><path fill="#342a4c" d="M159 113c3.375.547 5.082 1.055 8 3h-4l-1 4c-3-3.625-3-3.625-3-7"/><path fill="#2d1968" d="M56 110h10l1 3h-7v-2z"/><path fill="#7c94e1" d="M130 98c3.112 1.498 6.053 3.2 9 5l-2 2c-2.866-.185-3.812-.792-5.75-2.937C130 100 130 100 130 98"/><path fill="#3a5c4b" d="m201.688 81.813 2.449.082L206 82v2c-2.882.96-4.699 1.106-7.687 1.063l-2.45-.028L194 85c2.419-2.983 3.898-3.352 7.688-3.187"/><path fill="#a68b41" d="m140 79 1 2h6c-3.445 2.296-5.938 2.54-10 3 1.875-3.875 1.875-3.875 3-5"/><path fill="#3d292e" d="M166 29h4c-.75 2.438-.75 2.438-2 5-2.062.688-2.062.688-4 1l-1 2c.547-3.375 1.055-5.082 3-8"/><path fill="#7a8ac5" d="m131 129 4 2-1 8c-2-1-2-1-3.187-4.437C130 131 130 131 131 129"/><path fill="#543764" d="M173 117q2.688.172 5.375.375l3.023.21C184 118 184 118 186 120l-3.375-.062c-3.457-.202-3.457-.202-5.625 1.062-2.125-.937-2.125-.937-4-2z"/><path fill="#56abc8" d="m78 107 1 2 3 1c.688 2.063.688 2.063 1 4l-2.375-.562c-2.596-.698-2.596-.698-4.625.562.875-4.75.875-4.75 2-7"/><path fill="#598eb5" d="M79 93c2.438.125 2.438.125 5 1 1.313 2.563 1.313 2.563 2 5l-2 1-.812-1.937C82.113 95.669 82.113 95.669 79 95l-1 2c0-3 0-3 1-4"/><path fill="#663425" d="M141 68h7l-5 6-3-1z"/><path fill="#8dc0d0" d="M153 124c3.375 1.186 5.647 2.276 8 5l-1 2-8-5z"/><path fill="#6d92b4" d="m146 121 1 2a78 78 0 0 0 5 2c-2.49 1.245-3.41.777-6 0l-2 4v-6h2z"/><path fill="#8b6fdf" d="m136 121 8 1-1 4v-2l-2.375.563C138 125 138 125 136 124z"/><path fill="#84a9d0" d="m140 114 1.875 1c2.035 1.142 2.035 1.142 4.125 1l-1 4-6-1z"/><path fill="#3c8047" d="m149 85 11 1c-3.744 1.872-4.84 2.24-8.75 2.125l-2.422-.055L147 88l2-1z"/><path fill="#93933f" d="M177 70c-1.41.702-2.828 1.386-4.25 2.063l-2.39 1.16c-2.62.863-3.809.707-6.36-.223 1.867-2.386 2.945-2.986 5.938-3.75 2.799-.229 4.424-.002 7.062.75"/><path fill="#51b0c9" d="M91 70h12l-1 4-1.562-.937C97.333 71.709 94.348 71.386 91 71z"/><path fill="#5f5192" d="m59 166 2 2c3.583.167 3.583.167 7 0v2c-2.789 1.394-4.92 1.257-8 1l-2-3z"/><path fill="#5a8ecb" d="M119 140c3.422 1.255 5.54 3.365 8 6-4.401-.503-6.712-2.088-10-5z"/><path fill="#8e7ced" d="M137 124h6v3l-7 1z"/><path fill="#418da4" d="M78 112c2.754.275 3.837.837 5.813 2.813C85 117 85 117 84.687 119.25L84 121c-3-4.75-3-4.75-3-7l-4-1z"/><path fill="#7d96df" d="M125 100c2.375.313 2.375.313 5 1l2 3-6 1z"/><path fill="#d9c1dd" d="m125 82 2 1-1 5h-3l1 5-2-1c-.37-5.415-.37-5.415 1.5-8.375z"/><path fill="#8e7132" d="M145 75c0 3 0 3-1 5l7-1c-2 2-2 2-3.945 2.195L141 81c1.152-2.468 2.048-4.048 4-6"/><path fill="#38402d" d="M172 77v2l-5 1v2h-6c3.641-3.135 6.152-5 11-5"/><path fill="#7a64af" d="M120 68q1.731 1.36 3.438 2.75l1.933 1.547c1.817 1.9 2.233 3.139 2.629 5.703h-2c-1.508-1.68-1.508-1.68-3.125-3.875l-1.633-2.18C120 70 120 70 120 68"/><path fill="#23404f" d="m71.125 63.938 3.32.027L77 64v1l-2.012.148c-6.7.563-6.7.563-12.988 2.852l1-3c2.765-1.382 5.046-1.095 8.125-1.062"/><path fill="#34262a" d="m163 40 1 3-2 3h-2l-2 4-1-2z"/><path fill="#7a66dc" d="m112 146-1 4-7-1c2.513-2.513 4.489-3 8-3"/><path fill="#5ebad8" d="M130 106h4v4l-5-1-1 4c-.125-2.375-.125-2.375 0-5z"/><path fill="#302a7b" d="M75 105h2l-1 7-4-2c1.375-2.5 1.375-2.5 3-5"/><path fill="#579aae" d="M148 91v2h-2v2l-4-1v-3c2.49-1.245 3.41-.777 6 0"/><path fill="#3f1e2a" d="m138 59 1 2a279 279 0 0 1-2.312 3.438l-1.301 1.933C134 68 134 68 131 69v-2l2-1c.652-2.025.652-2.025 1-4h3z"/><path fill="#52272f" d="m162 30 2 1-5 7-3-1 2-3h2z"/><path fill="#397b94" d="m75 146 2 1c-2.187 2.063-2.187 2.063-5 4-2.812-.25-2.812-.25-5-1v-2l3.438-.437c3.37-.175 3.37-.175 4.562-1.563"/><path fill="#658cdf" d="M121 131c2.867.573 3.861.861 6 3l-5 2z"/><path fill="#307fc7" d="m124 122 4 2v2h-9z"/><path fill="#2a4f59" d="m80 117 1 3H71v-2c3.073-.91 5.801-1.089 9-1"/><path fill="#6eb5dd" d="M56 115h11l-3 1v2h-4v-2z"/><path fill="#3f4aa7" d="M124 114c.813 1.625.813 1.625 1 4-1.468 2.246-3.159 4.024-5 6 0-3.742 1.284-7.284 4-10"/><path fill="#5e458d" d="m151 108 5 1-1 5h-2v-3h-2z"/><path fill="#367285" d="m88 100 3 2h4l-1 4c-2.437-.75-2.437-.75-5-2-.812-2.125-.812-2.125-1-4"/><path fill="#27457b" d="M175 97h8l1 3c-6.152-.586-6.152-.586-8-1z"/><path fill="#bc9ced" d="m139 96 5 2v2l-6 1c0-3 0-3 1-5"/><path fill="#b9f6de" d="m136 88 1 2h5c-3.996 2.83-7.427 1.762-12 1v-1z"/><path fill="#22333e" d="m74 82 2 1-2 2zm-1 3c.934 3.01 1.044 3.867 0 7l-2-1c.875-4.875.875-4.875 2-6"/><path fill="#535a35" d="m164 78 2 1c-2.75 2.063-2.75 2.063-6 4-2.203-.379-2.203-.379-4-1q1.931-1.044 3.875-2.062l2.18-1.16z"/><path fill="#5e4c25" d="m152 72 1 2 3 2-8 2c1.152-2.468 2.048-4.048 4-6"/><path fill="#53bec7" d="M109 68h1v12l-1-4h-2z"/><path fill="#2e302b" d="m203 60 3 2a91 91 0 0 1-4 4h-2v-5z"/><path fill="#2b2b3e" d="m70 170 4 1-2 2h-3zm-3 3 2 1-2 2-3-1z"/><path fill="#507099" d="m90 128 1.813 1c2.24 1.208 2.24 1.208 5.187 1v2l-6 1-2-3z"/><path fill="#335c71" d="m85 125 1 3 3 1c1.188 2.063 1.188 2.063 2 4-4.875-1.875-4.875-1.875-6-3a100 100 0 0 1 0-5"/><path fill="#8573af" d="M158 122c2 1.125 2 1.125 4 3 .25 3.188.25 3.188 0 6-2.523-1.974-2.993-2.967-3.687-6.187z"/><path fill="#7e85cf" d="m151 119 3 1c0 3 0 3-1 5l-4-1z"/><path fill="#4354cd" d="M121 109c2.063.438 2.063.438 4 1l-1 4v-2l-5 2c.875-3.875.875-3.875 2-5"/><path fill="#a47cd7" d="m142 101 7 2-2 4a283 283 0 0 1-5-5z"/><path fill="#f7f6f0" d="M123 88c2.438.375 2.438.375 5 1l1 2-5 1z"/><path fill="#ebafb1" d="M129 82c2.125.938 2.125.938 4 2-4.625 3-4.625 3-8 3 1.75-3.875 1.75-3.875 4-5"/><path fill="#8d9fa0" d="M136 152h4v4l-6-1 2-1z"/><path fill="#438095" d="M82 153h3c-.687 1.938-.687 1.938-2 4-2.625.75-2.625.75-5 1 1.813-2.5 1.813-2.5 4-5"/><path fill="#5a4194" d="m142 147 4 2-6 5z"/><path fill="#67bcde" d="M136 136h4l1 4-4-1-1 2z"/><path fill="#7da3cd" d="m115 129 1 3-1 2 3 1-3 1-2-1c.875-4.875.875-4.875 2-6"/><path fill="#2e2737" d="M168 117c4.128.607 7.332 2.038 11 4-1.562.75-1.562.75-4 1-2.503-1.13-4.67-2.521-7-4z"/><path fill="#4a98b6" d="m57 104 8 1v1l-11 2 2-1z"/><path fill="#3c5495" d="m84 100 2 4h-3l-1 3-2-5z"/><path fill="#45377a" d="M154 100h5l1 4-6-2z"/><path fill="#83a8d2" d="m109 87 2 1v9l-1-4h-2z"/><path fill="#638ac0" d="m101 76 3 1c.125 2.875.125 2.875 0 6l-2 2z"/><path fill="#608dbc" d="m109 61 1 2c-.998 2.993-1.752 3.948-4 6l-2-1c1.25-3.653 1.671-4.78 5-7"/></svg>