<svg xmlns="http://www.w3.org/2000/svg" viewBox="0 0 64 64" width="64" height="64">
  <defs>
    <linearGradient id="face-left" x1="0%" y1="0%" x2="100%" y2="100%">
      <stop offset="0%" stop-color="#818cf8" />
      <stop offset="100%" stop-color="#6366f1" />
    </linearGradient>
    <linearGradient id="face-right" x1="0%" y1="0%" x2="100%" y2="100%">
      <stop offset="0%" stop-color="#6366f1" />
      <stop offset="100%" stop-color="#4f46e5" />
    </linearGradient>
    <linearGradient id="face-top" x1="0%" y1="0%" x2="100%" y2="100%">
      <stop offset="0%" stop-color="#a5b4fc" />
      <stop offset="100%" stop-color="#818cf8" />
    </linearGradient>
  </defs>

  <!-- 3D triangular prism -->
  <!-- Left face -->
  <path d="M32 4 L8 28 L20 60 L32 36 Z" fill="url(#face-left)" opacity="0.9"/>
  <!-- Right face -->
  <path d="M32 4 L56 28 L44 60 L32 36 Z" fill="url(#face-right)" opacity="0.85"/>
  <!-- Top face / highlight -->
  <path d="M32 4 L8 28 L32 36 L56 28 Z" fill="url(#face-top)" opacity="0.5"/>
  <!-- Bottom edge -->
  <path d="M20 60 L32 36 L44 60 Z" fill="#4338ca" opacity="0.7"/>
  <!-- Edge highlights -->
  <line x1="32" y1="4" x2="8" y2="28" stroke="white" stroke-width="0.8" opacity="0.4"/>
  <line x1="32" y1="4" x2="56" y2="28" stroke="white" stroke-width="0.8" opacity="0.3"/>
  <line x1="32" y1="4" x2="32" y2="36" stroke="white" stroke-width="0.6" opacity="0.3"/>
  <line x1="8" y1="28" x2="20" y2="60" stroke="white" stroke-width="0.6" opacity="0.2"/>
  <line x1="56" y1="28" x2="44" y2="60" stroke="white" stroke-width="0.6" opacity="0.2"/>
  <line x1="20" y1="60" x2="44" y2="60" stroke="white" stroke-width="0.6" opacity="0.15"/>
</svg>
